<?xml version="1.0" encoding="UTF-8"?>
<svg id="Capa_2" data-name="Capa 2" xmlns="http://www.w3.org/2000/svg" viewBox="0 0 326.38 385.35">
  <defs>
    <style>
      .cls-1 {
        fill: #27374e;
      }
    </style>
  </defs>
  <g id="Modo_de_aislamiento" data-name="Modo de aislamiento">
    <path class="cls-1" d="M192.33,211.21c.02-.12.05-.25.07-.38.02-.12.04-.25.05-.37-.02.13-.03.25-.06.37-.02.13-.04.26-.06.38M192.49,210.07c-.01.13-.03.25-.04.38.02-.13.03-.25.05-.38h0ZM190.61,201.4c.08.12.16.25.24.37-.08-.13-.16-.25-.24-.37h0ZM191.08,202.16h0c.13.25.26.5.38.76h0c-.12-.26-.25-.51-.38-.76M200.17,172.11c-1.61.01-3.22.02-4.85.04,1.63,0,3.24-.02,4.85-.03.12,0,.25,0,.38,0-.12,0-.25,0-.38,0M229.46,190.19c-2.38-6.47-4.37-13.03-6.26-19.79-.1-.7-.4-1.1-.99-1.1-.4,0-.7.2-.99.7-.8,1.29-1.99,1.79-5.97,1.89-4.31.1-8.87.17-13.55.21-.25,0-.51,0-.75,0h0c-.13,0-.27,0-.4,0-.12,0-.25,0-.38,0-1.6.01-3.22.02-4.85.03-.54,0-1.08,0-1.63,0-.72,0-1.45,0-2.17,0-.97,0-1.93,0-2.9,0-.27,0-.54,0-.8,0h-.85c-3.92,0-7.82,0-11.61,0-.88,0-1.76-.01-2.65-.03-.99,2.19-2.37,4.1-4.14,5.71.94,1.64,1.42,3.88,1.42,6.85v43.96c0,.16,0,.31,0,.47-.13,7.59-3.59,10.17-9.64,10.17-.9,0-1.49.5-1.49,1.09s.6,1.1,1.49,1.1c4.97,0,10.14-.3,15.01-.3s10.14.3,15.02.3c.99,0,1.59-.5,1.59-1.1s-.6-1.09-1.59-1.09c-6.04,0-9.41-2.58-9.54-10.17,0-.15,0-.31,0-.48v-16.01c0-1.89.7-2.59,2.59-2.59h7.55c.06-.48.09-.98.09-1.5,0-2.23-.42-4.1-1.28-5.65h-6.35c-1.83,0-2.54-.66-2.58-2.42v-18.37c0-1.89.69-2.59,2.58-2.59h23.97c11.34,0,16.01,3.28,19.99,11.14.49.99.9,1.29,1.49,1.29.4,0,.8-.3.8-.9,0-.2,0-.39-.2-.89M213.41,206.49c0-2.12.08-4.22.15-6.24.08-2.03.15-4.14.15-6.29,0-1.26-.77-2.24-1.75-2.24-1.11,0-1.85.9-1.85,2.24,0,3.56-1.89,6.12-5.22,7.36.09.24.19.47.27.71.69,1.93,1.05,4.02,1.05,6.24,0,1.06-.06,2.07-.17,3.05-.03.27-.07.53-.11.8,2.69,1.36,4.18,3.74,4.18,6.9,0,1.35.74,2.25,1.85,2.25.98,0,1.75-.99,1.75-2.25,0-2.15-.08-4.26-.15-6.29-.07-2.02-.15-4.11-.15-6.24M192.45,210.45c.02-.13.03-.25.05-.38.01-.12.02-.24.03-.35,0,.12-.02.24-.03.35-.01.13-.03.25-.04.38M192.39,210.83c.02-.12.04-.25.05-.37-.02.13-.03.25-.06.37h0ZM191.08,202.16h0c.13.25.26.5.38.76.19.41.35.84.49,1.28-.14-.44-.3-.87-.49-1.28-.12-.26-.25-.51-.38-.76M176.94,158.03c-.91,0-1.83,0-2.74,0-.26,0-.51,0-.77,0-.26,0-.51,0-.77,0-4.2.03-8.36.08-12.53.14-.26,0-.52,0-.79.01-.27,0-.53,0-.79.01-4.77.07-9.56.12-14.45.12s-10.05-.3-15.02-.3c-.9,0-1.49.5-1.49,1.09s.6,1.1,1.49,1.1c6.17,0,9.65,2.68,9.65,10.65v2.99h4.17c2.6,0,4.81-.15,6.68-.44v-5.14c0-1.89.7-2.59,2.59-2.59h21.59c.22,0,.43,0,.64,0,7.05.09,11.33,1.7,13.45,4.97,3.98-.01,8-.03,11.95-.06-2.17-7.46-9.36-12.58-22.86-12.58M204.45,205.25c-.04-.24-.09-.48-.14-.72-.03-.15-.07-.3-.11-.45-.04-.18-.09-.35-.14-.53-.03-.11-.06-.22-.1-.33-.03-.08-.05-.17-.08-.25-.03-.08-.05-.16-.08-.24-.03-.09-.06-.17-.09-.26-.09-.24-.18-.49-.28-.72-.1-.24-.2-.46-.31-.69-2.28-4.75-6.9-8.13-12.94-9.71-.3-.1-.5-.29-.5-.49s.2-.4.5-.5c4.34-1.35,8.02-4.56,9.56-9.31h-10.9c-.97,2.61-3.07,4.6-6.5,5.73v9.51c3.91.95,6.62,2.69,8.26,5.11.08.12.16.24.24.37.08.13.16.25.23.38h0c.14.25.26.5.38.76.19.41.35.84.49,1.28.1.31.18.64.26.97.01.04.02.07.02.11.03.12.05.25.08.37.02.12.04.24.07.37.01.09.03.18.04.28.03.23.06.46.08.69.01.11.02.22.03.33.01.12.02.25.03.38,0,.1,0,.19.01.29,0,.07,0,.13,0,.2,0,.13,0,.26,0,.4,0,.39-.01.78-.04,1.15,0,.12-.02.23-.03.35-.01.13-.03.25-.05.38-.02.13-.03.25-.05.37-.02.13-.04.26-.07.38-.03.13-.06.25-.08.38-.95,4.17-4.09,6.96-9.9,7.99v7.99c13.39-.82,20.5-6.18,22.04-15.29.04-.25.08-.5.11-.75h0c0-.06.01-.11.02-.17.02-.14.04-.27.05-.41,0-.06.01-.13.02-.19.04-.4.07-.81.09-1.22.02-.41.03-.84.03-1.26,0-1.04-.09-2.05-.25-3.02M188.49,179.55h12.42s-12.42,0-12.42,0h0ZM152.17,195.43h16.31v-7.56h-16.31c-1.89,0-2.59-.79-2.59-2.68v-.82c-1.61.11-3.3.17-5.08.17h-6.52v30.3c0,7.03-2.58,9.89-8.9,9.89-1.28,0-2.25.8-2.25,1.85s.97,1.85,2.25,1.85c2.51,0,5.1-.08,7.61-.15,2.46-.07,5-.15,7.41-.15,5.86,0,11.65.07,17.25.15,2.34.03,4.71.06,7.11.09v-8.36h-13.82c-3.68,0-5.07-1.4-5.07-5.17v-16.72c0-1.89.7-2.68,2.59-2.68M204.58,210.76c0,.06-.02.13-.02.2,0-.07.02-.13.02-.2.04-.4.07-.81.09-1.22-.02.41-.05.82-.09,1.22M160.34,167.2c-.38,1.46-1,2.69-1.88,3.73-.25.25-.5.52-.76.78-1.57,1.44-3.75,2.4-6.61,2.98-.25.05-.5.1-.75.14-.25.04-.5.08-.76.12-1.95.28-4.17.41-6.68.41h-19.7c-1.19,0-1.79-.6-1.79-1.79v-21.39c0-1.89.7-2.59,2.59-2.59h16.62c9.74,0,16.33,1.6,18.94,7.08.35,0,.69-.01,1.03-.02,3.85-.05,7.78-.1,11.75-.13-2.59-9.99-12.31-14.6-30.53-14.6-8.46,0-17.41.3-25.87.3-4.87,0-10.05-.3-15.02-.3h0c-.9,0-1.49.5-1.49,1.1s.6,1.09,1.5,1.09c6.17,0,9.65,2.68,9.65,10.64v43.98c0,7.96-3.48,10.64-9.65,10.64-.9,0-1.5.5-1.5,1.09s.6,1.1,1.5,1.1c4.97,0,10.15-.3,15.02-.3s10.15.3,15.03.3c.99,0,1.59-.5,1.59-1.1s-.6-1.09-1.59-1.09c-6.17,0-9.55-2.69-9.55-10.64v-13.93c0-1.19.6-1.79,1.79-1.79h21.29c1.76,0,3.46-.05,5.08-.17.26-.02.51-.04.76-.06.25-.02.5-.04.75-.07,6.45-.62,11.69-2.23,15.43-5.12.27-.22.35-.28.61-.49.18-.16.37-.32.55-.49,1.38-1.28,2.52-2.78,3.38-4.51.12-.24.24-.49.35-.75.11-.25.21-.5.31-.75.41-1.07.72-2.21.95-3.43h-12.32ZM234.6,119.19c-.3-.04-.53-.03-.66,0-.14.03-.27.14-.41.32-.12.17-.28.47-.46.9l-1.92,4.55-.69-.29-1.19-6.64-1.51,3.58c-.36.86-.4,1.22-.26,1.47.07.12.22.29.46.48l-.02.05-1.98-.83.02-.05c.61.07.81.03,1.07-.31.14-.18.29-.48.47-.9l1.62-3.85c-.05-.32-.24-.66-.57-1.01l.02-.05,1.52.64,1.18,6.68,1.52-3.61c.36-.86.4-1.22.26-1.47-.07-.12-.23-.29-.46-.48l.02-.05,1.98.83-.02.05ZM222.96,114.02c.17-.29.43-.74.75-1.33l.96.34c-.6.4-1.14.74-1.62,1.02l-.09-.03ZM219.7,120.44c.85-.03.83,0,1.16-.79l1.44-4.08c.23-.83.23-.79-.41-1.35l.02-.05,2.54.9-.02.05c-.85.03-.83,0-1.17.79l-1.44,4.08c-.23.83-.23.8.41,1.35l-.02.05-2.54-.9.02-.05ZM217.26,114.26l-.05-.02c-.04-.76-.4-1.5-1.23-1.74l-.51-.15-1.49,5.07c-.11.38-.14.63-.09.77.05.13.24.32.56.55l-.02.05-2.58-.76.02-.05c.4-.02.66-.07.77-.15.12-.09.24-.32.35-.7l1.49-5.07-.54-.16c-.83-.24-1.53.19-1.98.8l-.05-.02.6-1.45,5.02,1.48-.28,1.54ZM208.04,110.12c-.3.02-.52.06-.65.12-.13.06-.24.18-.35.38-.09.19-.19.51-.3.96l-1.1,4.81-.73-.17-2.32-6.33-.86,3.79c-.21.91-.18,1.27,0,1.49.09.11.27.24.54.39v.05s-2.11-.48-2.11-.48v-.05c.63-.04.82-.12,1.01-.49.1-.2.21-.52.31-.97l.93-4.07c-.1-.31-.35-.61-.74-.89v-.05s1.62.37,1.62.37l2.32,6.37.87-3.82c.21-.91.18-1.27,0-1.49-.09-.11-.27-.24-.54-.39v-.06s2.11.48,2.11.48v.05ZM194.15,111.3l-.56-2.99-1.49,2.65,2.05.34ZM195.76,113.95c.08.11.26.23.54.38v.06s-2.66-.44-2.66-.44v-.06c.64-.11.83-.2.87-.42.01-.09,0-.26-.04-.49l-.24-1.3-2.32-.38-.17.3c-.33.58-.52.98-.55,1.17-.05.33.12.52.66.81v.06s-1.98-.33-1.98-.33v-.06c.36-.14.63-.31.83-.51.19-.2.45-.57.77-1.14l2.06-3.62-.18-.58c.39-.1.71-.21.97-.35l1.28,6.34c.05.26.12.44.19.56M180.61,111.4c-.5-.68-.7-1.53-.59-2.56.11-1.05.5-1.87,1.18-2.45.68-.58,1.5-.81,2.47-.71.65.07,1.33.27,2.02.6l.02,1.53h-.07c-.56-1.19-1.26-1.83-2.07-1.92-.59-.06-1.12.17-1.59.7-.46.53-.75,1.29-.86,2.29-.11,1.04.02,1.85.38,2.45.37.6.85.93,1.46,1,.4.04.8.02,1.16-.23.18-.13.29-.31.31-.53l.14-1.28c.04-.36,0-.64-.15-.82-.14-.18-.46-.3-.95-.36v-.1s2.72.29,2.72.29v.06c-.24.11-.4.21-.47.33-.06.11-.11.36-.16.75l-.22,2.08h-.06c-.14-.17-.31-.27-.5-.29-.32-.03-1.07.43-2.07.32-.89-.1-1.59-.48-2.09-1.16M171.96,108.07l.84.05c.85.05,1.49-.42,1.54-1.43.05-.98-.5-1.46-1.45-1.51l-.78-.04-.16,2.94ZM175.95,111.76v.06s-1.42-.08-1.42-.08c-.72-1.16-1.39-2.3-1.99-3.42h-.59s-.11,2.08-.11,2.08c.01.86,0,.83.77,1.18v.06s-2.69-.15-2.69-.15v-.06c.81-.27.79-.23.9-1.09l.23-4.32c-.01-.86,0-.83-.77-1.18v-.06s2.75.15,2.75.15c1.57.08,2.4.8,2.35,1.72-.02.43-.2.8-.55,1.1-.34.29-.76.48-1.26.53.5.85,1.05,1.74,1.65,2.66.18.27.42.54.74.8M165.61,109.75l-.23,1.63h-4.96v-.07c.79-.31.78-.27.84-1.13v-4.32c-.04-.86-.04-.83-.82-1.14v-.06h4.63s.16,1.57.16,1.57h-.07c-.12-.35-.32-.66-.6-.92-.28-.27-.64-.4-1.07-.41h-1.21s0,2.77,0,2.77h1.2c.44,0,.8-.2,1.05-.62h.05v1.57h-.05c-.19-.39-.57-.72-1.05-.72l-1.2.02v2.81c0,.23.45.4,1.24.41h.46c.35,0,.65-.14.92-.42.27-.28.49-.6.65-.96h.06ZM154.98,109.67c-.05-1.13-.68-1.67-1.61-1.59l-.99.1.13,2.82c.01.2.37.36.96.33h.05c1.02-.05,1.5-.6,1.45-1.66M152.24,105.18l.13,2.73.84-.04c.38-.02.71-.16.96-.42.26-.27.38-.61.35-1.02-.04-.78-.58-1.33-1.4-1.29l-.88.04ZM155.44,108.33c.39.28.6.69.62,1.21.03.55-.18,1.03-.61,1.42-.42.39-1.04.6-1.84.63l-2.91.14v-.06c.77-.35.76-.31.78-1.17l-.21-4.32c-.1-.86-.08-.82-.89-1.09v-.06s2.91-.14,2.91-.14c.7-.03,1.24.09,1.64.38.4.29.6.65.62,1.08.02.51-.36.96-.77,1.17-.2.1-.42.19-.67.26v.02c.49.06.93.24,1.32.53M138.01,110.27l-1.41-2.7-.65,2.98,2.07-.28ZM140.33,112.33c.11.08.31.15.62.21v.06s-2.65.36-2.65.36v-.06c.56-.29.72-.43.69-.65-.01-.09-.07-.25-.18-.46l-.61-1.17-2.33.31-.08.34c-.15.65-.21,1.09-.19,1.29.05.33.27.46.87.58v.06s-1.97.26-1.97.26v-.06c.29-.24.5-.48.62-.73.13-.24.27-.68.4-1.31l.9-4.07-.34-.5c.34-.21.62-.41.83-.62l3.08,5.68c.13.23.24.38.35.48M130.16,108.95h-.05c-.38-.64-1.04-1.14-1.89-.98l-.53.1.97,5.19c.07.39.17.63.27.73.1.1.36.17.75.23v.06s-2.63.49-2.63.49v-.05c.33-.2.54-.36.6-.49.07-.14.07-.39,0-.78l-.97-5.19-.55.1c-.85.16-1.28.86-1.4,1.61h-.06s-.12-1.55-.12-1.55l5.15-.96.45,1.5ZM120.07,109.43c-.26.15-.44.29-.53.4-.09.11-.13.27-.14.5,0,.21.06.55.17.99l1.19,4.79-.73.18-4.93-4.61.94,3.77c.22.9.41,1.21.67,1.33.13.06.35.1.65.11v.06s-2.07.52-2.07.52v-.05c.52-.32.65-.47.65-.89,0-.22-.05-.56-.16-1l-1.01-4.05c-.23-.23-.59-.39-1.06-.46v-.06s1.59-.4,1.59-.4l4.95,4.64-.95-3.81c-.22-.9-.41-1.21-.67-1.33-.13-.05-.35-.1-.65-.11v-.05s2.07-.52,2.07-.52v.05ZM109.52,112.2c-.25.17-.42.32-.5.43-.08.11-.12.28-.1.51.02.21.09.54.23.98l.86,2.69c.43,1.35-.19,2.39-1.51,2.81-.57.18-1.13.2-1.7.03-.57-.18-1.08-.74-1.36-1.62l-.96-3.03c-.32-.81-.29-.77-1.14-.83l-.02-.05,2.57-.82.02.05c-.66.53-.66.5-.45,1.34l.95,2.99c.42,1.32,1.28,1.87,2.27,1.55.46-.14.8-.42,1.03-.83.23-.41.24-.9.06-1.49l-.86-2.7c-.28-.89-.49-1.19-.75-1.29-.13-.05-.36-.07-.66-.07l-.02-.05,2.05-.65.02.05ZM96.19,116.99l1.13,2.92.25-.1c1.3-.51,1.76-1.25,1.38-2.23-.37-.95-1.18-1.21-2.21-.81l-.55.21ZM97.41,120.13l.69,1.79c.14.37.28.59.42.66.14.07.42.09.85.06l.02.05-2.59,1-.02-.05c.62-.57.63-.54.37-1.36l-1.56-4.03c-.36-.78-.34-.75-1.19-.76l-.02-.05,2.4-.93c1.47-.57,2.61-.42,3.04.71.44,1.14-.27,2.07-2.14,2.79l-.28.11ZM209.03,264.49l-.85-1.33.06-.03c.55.44,1.11.77,1.84.86.36.05.68,0,.96-.16.6-.33.82-.99.48-1.61-.16-.29-.44-.5-.66-.59-.1-.05-.26-.09-.47-.12-.21-.03-.36-.05-.46-.05l-.52-.02c-.73-.02-1.29-.09-1.67-.2-.38-.13-.68-.39-.9-.79-.25-.46-.28-.91-.11-1.36.17-.45.5-.81.98-1.07.46-.25,1.02-.4,1.67-.47l.89,1.24-.06.03c-.39-.29-.81-.5-1.26-.64-.45-.14-.84-.12-1.17.06-.5.27-.74.86-.4,1.48.15.27.35.45.61.52.26.07.74.11,1.4.14.28,0,.48.02.59.03.12,0,.29.02.51.04.22.02.39.05.5.1.22.09.58.23.79.47.1.11.2.25.29.42.29.53.33,1.03.14,1.49-.2.46-.53.82-1.01,1.08-.58.31-1.29.47-2.16.47M204.01,265.75l.46,1.58-4.53,2.03-.02-.05c.59-.6.6-.57.3-1.38l-1.77-3.95c-.4-.76-.38-.73-1.23-.69l-.02-.05,4.23-1.9.79,1.35-.06.03c-.25-.27-.56-.47-.92-.59-.37-.13-.75-.11-1.14.07l-1.11.5,1.13,2.52,1.1-.49c.4-.18.64-.51.7-1l.04-.02.64,1.43-.04.02c-.34-.27-.82-.42-1.25-.22l-1.09.51,1.15,2.57c.09.2.59.18,1.3-.14l.42-.19c.32-.14.53-.39.67-.76.13-.37.2-.75.2-1.15l.05-.02ZM190.76,269.03l.8-.28c.81-.28,1.22-.95.89-1.9-.32-.93-1.02-1.17-1.91-.86l-.74.25.96,2.79ZM195.85,270.95l.02.05-1.34.46c-1.1-.8-2.15-1.61-3.14-2.41l-.55.21.68,1.98c.34.8.32.77,1.16.8l.02.05-2.55.88-.02-.05c.64-.55.65-.51.42-1.35l-1.41-4.09c-.33-.8-.31-.77-1.16-.8l-.02-.05,2.6-.9c1.48-.51,2.52-.17,2.83.71.14.41.11.82-.09,1.22-.2.4-.52.73-.97.97.78.6,1.63,1.22,2.53,1.85.27.18.59.34.98.46M184.07,273.73c.24-.59.27-1.3.08-2.11-.19-.8-.58-1.6-1.1-2.22-.5-.62-1.25-.97-1.98-.8-.58.13-.97.5-1.21,1.08-.24.59-.26,1.28-.07,2.1.26,1.11.82,2.15,1.7,2.74.44.29.9.39,1.38.28.57-.13.97-.49,1.21-1.07M182.76,275.07c-.92.21-1.74.08-2.48-.42-.73-.49-1.21-1.24-1.45-2.23-.23-1-.13-1.88.31-2.63.44-.77,1.12-1.25,2.04-1.47.92-.21,1.74-.08,2.48.41.73.49,1.21,1.23,1.45,2.23s.13,1.88-.31,2.64c-.44.77-1.11,1.25-2.04,1.47M173.05,275.59c.33-.61.43-1.39.32-2.34-.23-1.97-1.21-2.94-3.01-2.73l-.52.06.67,5.79c.02.2.39.33.98.26h0c.71-.08,1.23-.43,1.54-1.04M173.24,270.84c.69.51,1.1,1.26,1.21,2.23.11.98-.09,1.83-.62,2.57-.53.72-1.28,1.14-2.26,1.25l-2.83.33v-.06c.74-.4.74-.36.69-1.22l-.5-4.3c-.16-.85-.14-.82-.96-1.03v-.06s2.4-.28,2.4-.28c1.22-.14,2.18.05,2.87.56M161.62,274.8l-1.04-2.86-1.04,2.86h2.08ZM163.65,277.14c.09.09.29.19.59.29v.06h-2.68v-.06c.6-.22.78-.33.78-.55,0-.09-.04-.25-.12-.48l-.45-1.24h-2.36l-.12.33c-.23.63-.36,1.05-.36,1.25,0,.34.21.5.78.7v.06h-2v-.06c.33-.2.56-.41.72-.64.16-.23.36-.64.57-1.25l1.44-3.91-.27-.54c.37-.16.67-.33.9-.51l2.3,6.04c.1.24.19.41.28.52M151.97,275.94c.45-.53.73-1.26.84-2.21.22-1.97-.52-3.13-2.32-3.33l-.52-.06-.64,5.79c-.02.2.3.41.9.48h.01c.71.08,1.29-.14,1.73-.67M153.22,271.36c.56.66.79,1.47.68,2.44-.11.98-.5,1.77-1.18,2.36-.68.59-1.51.83-2.49.72l-2.83-.31v-.06c.82-.22.81-.18.96-1.04l.47-4.3c.04-.86.04-.83-.7-1.22v-.06s2.41.27,2.41.27c1.22.13,2.11.53,2.67,1.19M144.4,269.35c-.3.02-.52.07-.65.12-.13.06-.24.19-.35.38-.09.19-.19.52-.29.96l-1.07,4.82-.73-.16-2.35-6.32-.84,3.79c-.2.91-.18,1.27,0,1.49.09.11.27.24.54.39v.05s-2.11-.47-2.11-.47v-.05c.63-.05.82-.12,1.01-.5.1-.2.2-.52.3-.97l.91-4.08c-.1-.31-.36-.61-.75-.89v-.05s1.62.36,1.62.36l2.36,6.36.85-3.83c.2-.91.18-1.27,0-1.49-.09-.11-.27-.24-.54-.39v-.05s2.11.47,2.11.47v.05ZM134.34,266.91c-.3-.01-.53.01-.66.06-.13.04-.26.16-.38.35-.11.18-.24.49-.39.93l-.88,2.68c-.44,1.35-1.55,1.83-2.87,1.4-.57-.19-1.03-.5-1.4-.97-.36-.48-.45-1.23-.15-2.11l.99-3.02c.22-.84.21-.8-.44-1.34l.02-.05,2.56.84-.02.05c-.84.05-.82.01-1.15.82l-.98,2.98c-.43,1.32-.05,2.26.93,2.59.45.15.9.13,1.32-.07.42-.2.73-.59.92-1.18l.89-2.69c.29-.88.3-1.24.14-1.48-.08-.12-.25-.27-.5-.44l.02-.05,2.04.67-.02.05ZM123.82,264.8l-.06-.03c.02-.37-.04-.73-.2-1.08-.15-.36-.43-.62-.83-.79l-1.17-.5-1.08,2.55,1.06.45c.41.17.82.12,1.21-.17l.04.02-.61,1.44-.04-.02c-.05-.54-.28-.9-.69-1.07l-1.07-.43-.88,2.09c-.15.36-.2.62-.15.77.06.15.27.37.64.67l-.02.05-2.64-1.12.02-.05c.85.02.82.05,1.21-.72l1.69-3.98c.28-.82.28-.78-.33-1.37l.02-.05,4.33,1.83-.45,1.5ZM183.59,295.14c.3.28.45.65.45,1.1,0,.49-.17.89-.51,1.19-.34.3-.74.45-1.21.45-.42,0-.88-.11-1.37-.33l.33-.76h.04c.28.64.62.96,1.02.96.26,0,.5-.12.71-.36.22-.24.33-.58.33-1.01,0-.85-.47-1.27-1.12-1.27-.38,0-.75.1-1.1.3l.6-2.59h1.44c.26,0,.45-.04.55-.1.11-.06.23-.2.38-.4h.04s-.41,1.13-.41,1.13h-1.95l-.33,1.45c.06-.04.19-.08.38-.12.19-.05.38-.07.57-.07.46,0,.84.14,1.14.43M178.35,297.05c.13-.08.28-.25.45-.5h.03s-.38,1.25-.38,1.25h-2.87v-.14c1.53-1.52,2.27-2.62,2.27-3.46,0-.6-.36-.98-.83-.98-.42,0-.89.29-1.23.72l-.09-.04c.18-.33.41-.61.7-.83.29-.22.6-.33.91-.33s.6.11.83.34c.23.22.35.52.35.89,0,.4-.17.84-.51,1.33-.33.49-.9,1.11-1.7,1.88h1.47c.28,0,.48-.04.61-.12M172.64,297.09c.19-.43.29-1.02.29-1.76,0-1.58-.45-2.43-1.03-2.43s-1.02.86-1.02,2.42.45,2.42,1.04,2.42c.3,0,.55-.21.73-.65M170.68,297.17c-.33-.47-.49-1.09-.49-1.85s.17-1.4.5-1.87c.33-.48.74-.72,1.21-.72s.87.24,1.21.73c.33.48.5,1.11.5,1.88s-.16,1.37-.48,1.84c-.32.47-.73.7-1.22.7s-.91-.24-1.23-.72M167.58,297.05c.13-.08.28-.25.45-.5h.03s-.38,1.25-.38,1.25h-2.87v-.14c1.53-1.52,2.27-2.62,2.27-3.46,0-.6-.36-.98-.84-.98-.42,0-.89.29-1.23.72l-.09-.04c.18-.33.41-.61.7-.83.29-.22.6-.33.91-.33s.6.11.83.34c.23.22.35.52.35.89,0,.4-.17.84-.51,1.33-.33.49-.9,1.11-1.7,1.88h1.47c.28,0,.48-.04.61-.12M158.36,297.4c0-.23.21-.44.45-.44s.44.21.44.44-.2.44-.44.44c-.25,0-.45-.21-.45-.44M156.65,293.91h-.04c-.19-.54-.61-1-1.26-1h-.4v3.99c0,.3.04.49.1.58.06.09.24.18.52.28v.04h-2.03v-.04c.28-.1.46-.19.52-.28.07-.09.11-.28.11-.58v-3.99h-.43c-.65,0-1.07.46-1.26,1h-.04l.13-1.18h3.95l.13,1.18ZM147.12,297.42l-.08-1.19h.05c.21.49.46.91.91,1.23.22.16.45.24.7.24.52,0,.9-.36.9-.89,0-.25-.11-.49-.23-.63-.05-.07-.14-.16-.27-.25-.13-.09-.22-.16-.28-.2l-.34-.2c-.48-.28-.82-.52-1.04-.74-.21-.22-.31-.5-.31-.85,0-.4.14-.71.42-.94.28-.23.62-.35,1.04-.35s.82.1,1.28.29l.14,1.14h-.05c-.16-.33-.36-.62-.61-.88-.25-.26-.51-.38-.8-.38-.43,0-.8.3-.8.84,0,.23.07.43.22.57.15.14.45.34.88.6.18.11.31.18.38.23.08.04.18.11.33.21.14.09.24.18.3.25.11.14.31.36.35.6.03.11.04.24.04.38,0,.45-.15.8-.45,1.04-.3.23-.65.35-1.06.35-.5,0-1.03-.15-1.6-.47M144.55,296.57l-.17,1.23h-3.75v-.04c.6-.23.59-.21.63-.86v-3.27c-.04-.65-.04-.62-.63-.86v-.04h3.5l.13,1.18h-.05c-.09-.26-.24-.5-.45-.69-.21-.21-.48-.31-.81-.31h-.91v2.09h.91c.33,0,.6-.16.79-.48h.04v1.18h-.04c-.15-.29-.43-.55-.79-.54h-.91v2.14c0,.17.35.31.94.31h.35c.26,0,.49-.11.69-.32.21-.21.37-.45.49-.73h.04ZM162.82,52.69c0-1.8,0-3.61,0-5.42-.56-.09-.36.58-.78.91-.31.24-.83.11-1.11.45-2,2.46-.65,9.09,2.4,10.56,2.68-1.86,4.2-8.01,2.14-10.56-.28-.35-.8-.21-1.11-.45-.43-.33-.22-1-.78-.91v5.42c0,.15.63,3.23-.55,2.8-.71-.26-.19-2.43-.19-2.8M163.93,41.67c.12,1.08-.22,2.46.08,3.47.2.67,1.18,1.14,1.58,1.78,2.66,4.26,2.58,7.04.15,11.31-.82,1.44-2.34,1.7-1.44,3.98h-2.24c.91-2.28-.62-2.54-1.43-3.98-2.43-4.27-2.51-7.05.15-11.31.4-.64,1.38-1.11,1.58-1.78.52-1.77-1.02-4.04,1.57-3.47M160.77,26.36c-1.4,2.74,6.68,1.74,5.03,0-.18-.18-4.01.9-5.03,0M157.79,3.97c-1.4,2.36-1.91,6.27-1.53,8.97.17,1.2,2.7,9.7,3.2,10.06.28.2,1.09-.32,1.11-.56.01-.21-1.43-3.1-1.68-3.92-1.76-5.94-2.91-12.08,2.4-16.66.39-.34,2.41-.74,1.52-1.65-1.19-1.2-4.5,2.87-5.02,3.75M170.12,12.94c.38-2.7-.13-6.6-1.53-8.97-.52-.88-3.84-4.95-5.02-3.75-.89.9,1.13,1.3,1.52,1.65,5.32,4.58,4.17,10.72,2.4,16.66-.24.82-1.69,3.71-1.68,3.92.01.24.83.76,1.11.56.5-.36,3.03-8.87,3.2-10.06M176.45,10.29c-1.51,2.58-2.65,5-4.68,7.28-1.4,1.57-3.72,2.51-3.72,4.68.25.28,2.87-1.93,3.18-2.23,2.6-2.48,5.76-6.84,6.15-10.47.38.3.63.22.74.93.7,4.32-.35,8.01-3.35,11.22l-4.49,3.34c.49.7.77.59,1.49.4,1.78-.45,3.78-2.62,5.06-3.94.32-.33.52-1.05.58-1.09.09-.07,2.12.44,2.21.5.96.65.14,4.92-1.78,5.35-3.42.78-9.67.37-12,3.68-.33.47-1.38,2.81-.24,2.74.3-.02,1.04-1.79,1.47-2.25,1.49-1.61,5.41-2.07,7.59-2.49,1.37-.27,2.91.04,4.28-.58,2.71-1.22,4.01-8.68-.46-8.12,1.17-2.32,1.94-8.03.7-10.23-.96-1.7-7.28-2.05-8.01-1-.29.42-.14,1.04-.16,1.52,1.62-.61,4.4-.66,6.08-.37.3.05.25.35.27.37-.99-.2-.64.25-.93.74M155.15,20.02c.31.3,2.93,2.51,3.18,2.23,0-2.17-2.33-3.11-3.72-4.68-2.03-2.28-3.17-4.71-4.68-7.28-.29-.49.07-.93-.93-.74.02-.01-.04-.32.26-.37,1.68-.29,4.46-.24,6.08.37-.02-.48.13-1.09-.16-1.52-.59-.85-5.29-.49-6.29-.27-.66.14-1.38.68-1.71,1.27-.38.67-.74,4.33-.71,5.19.06,1.77.94,3.39,1.42,5.04-4.48-.56-3.18,6.89-.46,8.12,1.37.62,2.91.31,4.28.58,2.18.42,6.1.88,7.59,2.49.43.47,1.18,2.24,1.48,2.25,1.14.07.09-2.27-.24-2.74-2.34-3.31-8.58-2.9-12-3.68-1.91-.44-2.73-4.7-1.77-5.35.09-.06,2.12-.57,2.21-.5.06.04.27.76.58,1.09,1.27,1.32,3.28,3.49,5.06,3.94.72.18,1,.29,1.5-.4l-4.49-3.34c-2.99-3.22-4.04-6.9-3.35-11.22.11-.71.37-.62.74-.93.39,3.62,3.55,7.98,6.15,10.47M162.82,331.88v4.11s.75,0,.75,0v-4.11s-.75,0-.75,0ZM164.68,335.62c.21.22,5.29,0,6.16,0,.68,0,.29-3.59.19-4.31-.08-.6.22-.56-.57-.56-1.49,0-2.54.81-3.84,1.06-.9.17-1.78-.29-2.7.07.65.61.62,3.59.75,3.73M155.35,335.62h6.35c.19,0,.05-3.18.75-3.73-.92-.36-1.8.1-2.7-.07-1.3-.25-2.34-1.07-3.84-1.06-.78,0-.48-.03-.57.56-.08.55-.29,4.12,0,4.31M258.37,329.31c-1.16-1.89-6.59,2.51-1.63,4.43,1.36.53-.81-2.2-.19-2.98.68-.86.62,1.1,1.3.74.58-.3.81-1.72.52-2.19M177.76,328.89c-1.32.22-3.43-.3-4.6,0-.34.08-.47.8-.81,1.14-.27.28-.89.32-.94.39-.15.2,1.64,3.84,1.11,4.83l5.98-.75c-.83-1.76-.82-3.69-.75-5.6M153.41,328.97c-.68-.42-3.73.14-4.78-.08.07,1.91.08,3.84-.74,5.6l5.98.75c-.53-.99,1.26-4.63,1.11-4.83-.05-.06-.67-.1-.94-.39-.31-.32-.49-.98-.62-1.06M69.09,333.75c3.17-.57,3.59-4.42.12-4.74-1.78-.16-1.57,2.04-.68,2.5.68.35.63-1.61,1.3-.74.78,1.02-1.23,2.47-.74,2.98M192.29,331.1c.25-.35-.71-4.59-1.32-4.79l-12.49,2.83.78,5.36,6.35-1.5c-.86-1.52-.82-3.15-.74-4.85,1.13.35,1.47,4.17,1.89,4.47.24.18,5.38-1.28,5.55-1.52M147.83,328.94l-12.42-2.63c-.55.18-1.5,4.03-1.39,4.59.07.37,5.29,1.95,5.61,1.72.42-.3.76-4.11,1.89-4.47.07,1.7.11,3.33-.74,4.85l6.35,1.5.71-5.56ZM171.72,325.21c-.37-.23-1.3.02-1.81-.05.57,1.62.46,2.97-.37,4.48,2.39.71,3.38-3.69,2.18-4.43M168.79,325.16h-2.24c.15,2.03-.03,3.85-1.12,5.6,3.16-.35,3.68-2.82,3.36-5.6M159.83,325.16h-2.24c-.32,2.78.2,5.25,3.36,5.6-1.09-1.75-1.27-3.57-1.12-5.6M156.47,325.16c-3.46-.87-2.84,4.76.37,4.48-.83-1.51-.94-2.85-.37-4.48M259.04,332.51c-.15.21-2.27,1.56.24,1.17,3.34-.52,2.66-5.7,3.23-8-.02-1.38-2.78-.6-3.71-1.64.61,1.61-.14,2.54-1.12,3.73,2.45.35,2.67,2.88,1.37,4.74M68.71,327.77c-.99-1.19-1.73-2.12-1.12-3.73-.82.95-3.44.43-3.71,1.35-.09.3.57,5.63.82,6.2.33.73,1.61,1.97,2.4,2.09,2.53.39.33-1,.11-1.33-1.21-1.75-.79-4.36,1.5-4.58M163.01,318.07c-.45.11-1.87,4.18-1.92,4.85-.07.9.61,1.17.54,1.61-.06.36-.67.69-.71,1.55-.04.99,1.12,5.32,2.41,5.05,1.08-.23,2.16-4.06,2.12-5.05-.04-.85-.65-1.19-.71-1.55-.07-.45.58-.79.6-1.35.02-.7-1.47-5.32-2.34-5.12M215.48,320.3l6.34-4.29c-1.24-.46-2.98-5.23-3.88-5.02-.34.08-4.64,3.57-5.55,4.17-6.3,4.16-13.21,8.1-20.44,10.38-.27.3,1.92,3.91,1.5,4.85.28.29,6.12-1.63,6.32-1.9.39-.54-.95-3.86-.72-4.82,1.06-.21.6.32.86.8.6,1.09.67,1.64,1,2.76.11.36-.21.74.54.52,1.32-.38,2.88-1.6,4.32-1.85l-2.24-4.1c1.66-.63,2.98,3.26,3.54,3.31.8.07,6.25-3.84,7.66-4.07l-1.86-4.85c1.29.9,2.23,2.62,2.62,4.11M134.44,325.54c-7.22-2.28-14.13-6.21-20.44-10.38-.9-.6-5.21-4.09-5.55-4.17-.9-.21-2.64,4.57-3.89,5.02l6.34,4.29c.39-1.49,1.33-3.21,2.62-4.11l-1.86,4.85c1.42.27,6.81,4.14,7.67,4.07.55-.05,1.88-3.94,3.54-3.31l-2.24,4.1c1.44.25,3,1.47,4.32,1.85.76.22.44-.16.54-.52.3-1.03.36-1.81.92-2.83.28-.51-.04-.92.93-.73.23.96-1.1,4.28-.72,4.82.19.27,6.03,2.19,6.32,1.9-.42-.95,1.77-4.55,1.5-4.85M195.49,331.88c1.94-.47,8.32,0,10.83,0,.84,0,5.95-2.49,4.67-3.73h-1.86c-.08-1.51,1.61-.98,2.63-1.29,2.07-.63,7.94-2.4,9.14-3.93.22-.28.23-.41.18-.75-1.68.7-4.22,1.76-5.6,0,2.1.16,5.08-.8,6.85-1.93,2.08-1.33,3.68-4.95,5.2-5.63,2.98-1.34,7.54-1.27,6.18,3.19-.23.75-2.14,1.77-2.54,1.38-.77-.74,1.38-1.55,1.4-2.47.05-2.12-3-1.58-4.3-.99-.31.14-3.99,4.45-4.57,5.15-1.98,2.4-1.41,3.45-4.97,5.11-1.24.58-5.25,1.46-5.86,1.98-.63.54-.24,2.14-2.11,3.49-3.42,2.46-8.18,1.3-12.2,1.99l-2.37,2.86c-2.13.69-6.78-.07-8.48.42-.36.1-.15.99-.81,1.49-1.47,1.12-5.85,1.35-7.65.98-1.98-.41-3.44-2.27-5.4-2.47-4.06-.41-10.4.47-14.94.41-1.88-.02-4.42-.61-6.32-.41-1.91.19-3.26,1.92-5.12,2.38-2,.5-5.91.31-7.68-.77-.96-.59-.73-1.51-1.07-1.61-1.66-.48-6.38.27-8.48-.42l-2.37-2.86c-3.58-.56-11.52.45-13.52-3.28-.37-.69-.33-1.8-.79-2.2-.61-.52-4.62-1.4-5.86-1.98-3.56-1.66-2.99-2.71-4.97-5.11-.57-.7-4.25-5-4.56-5.15-1.31-.59-4.36-1.14-4.3.99.02.93,2.17,1.73,1.4,2.47-.56.55-2.54-.75-2.64-2.05-.15-1.83.23-3.09,2.08-3.21,6.35-.42,5.67,4.17,9.88,6.59,1.74,1,4.36,1.83,6.37,1.66-1.38,1.76-3.92.69-5.6,0-.05.35-.04.47.18.75,1.19,1.54,7.07,3.3,9.14,3.93,1.02.31,2.71-.22,2.63,1.29h-1.87c-1.1,1.08,3.73,3.74,4.67,3.74h10.83c1.3,0-.31,1.58-1.3,1.31,1.41,3.12,5.19,1.86,8.02,2.06,1.3.09,2.82.48,4.18.6.39.03,1.16-.32,1.23-.23.18.2.02,1.06-.36,1.31-.53.35-1.55-.17-1.5.55,2.9.59,6.47.97,8.59-1.49-18.64-2.28-35.56-10.68-50.22-22.05-3.19-2.48-3.44-4.71-8.12-3.24-2.78.87-2.87,2.58-2.5,5.28.38,2.74,3.03,4.9,5.75,4.72,2.42-.16,1.5-1.38,2.8-2.63.68,1.65.41,2.67-1.28,3.39l-2.82.71c3.62.81,6.74.55,8.4,4.48.37,0,.76-1.84,1.67-1.49.53,2.86,2.2,4.63,4.72,5.93,8.21,4.23,14.34,3.49,22.37,6.01,10.51,3.3,17.55,8.09,25.01,16.07,4.48,4.79,4.45,9.04,6.74,14.55.2.48.42,1.7,1.1,1.51.53-.15,3.07-8.97,3.75-10.45,4.7-10.17,21.04-20.39,31.83-22.69,7.59-1.62,11.8-1.15,19.27-5.01,2.52-1.3,4.19-3.06,4.72-5.93.91-.35,1.3,1.48,1.68,1.49,1.66-3.93,4.78-3.67,8.4-4.48l-2.82-.71c-1.69-.72-1.95-1.74-1.28-3.39,1.3,1.25.39,2.48,2.8,2.63,5.65.37,8.41-8.39,3.25-10-4.68-1.46-4.92.76-8.12,3.24-14.66,11.38-31.57,19.77-50.22,22.05,2.11,2.46,5.69,2.07,8.59,1.49.05-.72-.97-.2-1.5-.55-.39-.26-.54-1.12-.36-1.31.08-.09.84.26,1.23.23,1.36-.12,2.88-.51,4.18-.6,2.83-.2,6.61,1.06,8.02-2.06-.84.11-2.66-.97-1.3-1.31M254.31,284.82l-.74-2.98c-3.38,6.83-8.09,13.1-13.08,18.87-.68.79-1.06,1.07-1.5,1.55-1.94,2.15-3.82,4.32-5.96,6.29-.11.82.11.44.56.55,1.33.31,2.74.4,3.9,1.33,2.77,2.23,1.14,10.17-2.97,10.63.49,2.01,2.49,3.08,3.17,5.22,1.26-.02,2.85-8.5,2.83-9.89-.01-.91-1.54-5.45.35-4.49l3.72,4.68c.1-4.87,3.51-7.42,2.96-12.48-.11-.97-.82-1.8-.71-2.83,2.26-.1,3.1,2.24,4.47,3.56.89.86,1.91,1.48,2.84,2.41.46.46.6,1.81,1.31.9,1.97-2.54,1.14-7.23-.08-9.99-.91-2.06-3.89-5.26-3.31-7.46.08-.29.76-.25.74-.42-.15-1.34-1.3-2.17-.57-4.33.54-1.62,1.72-.85,2.07-1.1M86.38,301.91c-2.5-2.57-5.25-7.78-7.89-10.62l-6.04-9.45c.44.72-.5,2.9-.38,2.98.38.26,1.53-.51,2.07,1.1.73,2.17-.42,2.99-.57,4.33-.02.16.67.12.74.42.58,2.21-2.4,5.4-3.31,7.46-1.22,2.76-2.05,7.45-.08,9.99.71.91.85-.44,1.31-.9.93-.93,1.94-1.55,2.84-2.41,1.36-1.32,2.21-3.66,4.47-3.56.11,1.03-.61,1.86-.71,2.83-.55,5.06,2.86,7.61,2.96,12.48l3.72-4.68c1.87-.94.38,3.21.36,4.12-.04,1.47,1.48,10.25,2.82,10.26.68-2.14,2.68-3.21,3.18-5.22-3.95-.42-5.74-8.03-3.18-10.47,1.1-1.05,2.74-1.18,4.11-1.49.45-.1.68.28.56-.55-2.14-1.97-4.02-4.14-5.96-6.29-.3-.34-.85-.18-1.02-.35M247.95,289.3l2.98-5.04-4.47-4.11c-7.45,11.44-16.78,21.6-27.47,30.07l3.58,5.23c.36.24,4.65-4.04,5.59-4.12.17-.24-3.85-3.62-3.36-4.85l4.29,3.73,3.91-3.54c-1.27-1.27-2.33-2.85-2.6-4.67l3.55,3.73c.87-1.27,4.33-3.3,3.74-4.83-.24-.62-3.38-3.96-3.18-4.13,1.5-.32,3.73,3.48,4.62,3.33.74-.62,3.46-3.56,3.47-4.26.01-1.22-2.94-3.46-2.48-3.92,1.03-.3,3.5,3.14,3.73,2.99.09-1.16,3.09-3.81,2.96-4.62-.11-.62-3.54-3-2.95-3.6l4.1,2.61ZM103.81,315.45l3.58-5.23c-10.81-8.47-20.05-18.82-27.66-30.24-1.44,1.5-2.42,3.19-4.28,4.28l2.98,5.04,4.1-2.61c-.08,1.19-2.83,2.93-2.95,3.6-.14.81,2.87,3.46,2.95,4.62.23.16,2.7-3.29,3.73-2.99.46.46-2.49,2.7-2.48,3.92,0,.71,2.73,3.65,3.47,4.26.89.15,3.12-3.65,4.61-3.33.2.16-2.94,3.5-3.18,4.13-.59,1.53,2.87,3.56,3.74,4.83l3.55-3.73c-.27,1.81-1.33,3.4-2.6,4.67l3.9,3.54,4.29-3.73c.49,1.23-3.53,4.61-3.36,4.85.94.07,5.24,4.36,5.59,4.12M284.93,269.14c-3.48-.78-7.46,1.93-9.34,4.67-1.45,2.12-.77,5.62-1.87,8.03,2.7-.78,3.12-3.58,4.29-5.61,1.16-2,3.43-4.51,5.23-5.97.59-.48,1.53-.5,1.68-1.11M52.65,281.83c-1.1-2.33-.49-6.02-1.87-8.03-1.88-2.74-5.85-5.44-9.33-4.67.16.61,1.09.63,1.68,1.11,1.8,1.47,4.07,3.97,5.23,5.97,1.17,2.02,1.58,4.82,4.29,5.61M287.9,273.63c-.55-.55-3.47.23-3.72,1.68-.77,4.51,8.06,3.86,8.23-1.52.22-6.99-5.23-9.1-11.21-7.07-1.76.6-5.3,2.69-5.05,4.66,1.67-3.49,10.66-4.59,12.88-2.42,1.96,1.91,1.97,10.57-2.61,6.71-.18-1.31,1.52.1,1.86-.18-.39-.42-.31-1.77-.39-1.85M50.41,271.38c-1.43-5.1-11.98-7.4-14.87-3.11-1.85,2.74-2.39,7.24.7,9.26,4.45,2.9,8.17-2.19,4.74-3.62-2.12-.88-2.58-.46-2.89,1.58,4.47-1.29-.18,2.6-1.52.5-.86-1.35-.38-6.13,1-7.18,2.79-2.14,10.73-.62,12.85,2.58M263.26,261.67c-.13-.11-.54-.15-.74.23-.68,1.34-1.29,4.19-1.96,5.83-.61,1.52-3.18,6.53-3.25,7.58-.21,2.99,2.14,3.78,3.29,5.64.42.68,1.84,4.99,2.11,4.99.75-3.85-1.09-7.47-.54-11.37.46-3.27,2.1-1.56,2.22-1.7-.3-2.98.45-5.93,2.61-8.03-.7-.69-1.59-.69-2.42-1.3-.82-.6-1.2-1.77-1.31-1.87M63.85,261.66c-.49-.46-1.58,1.59-2.25,2.04-.73.49-1.63.46-2.22,1.14,2.16,2.1,2.91,5.05,2.61,8.03.11.15,1.76-1.57,2.22,1.7.55,3.91-1.29,7.52-.54,11.37.27,0,1.68-4.31,2.11-4.99,1.15-1.86,3.5-2.65,3.29-5.64-.07-1.06-2.64-6.05-3.25-7.58-.41-1.02-1.73-5.85-1.96-6.07M270.36,266.89c1.27-3.31,4.7-5.52,7.38-7.7.17-3.98.22-8.15-2.08-11.61-.34-.51-.96-1.7-1.57-1.05,3.21,3.46,3.89,12.67-2.08,13.61-4.21.67-5.45-1.43-7.63-4.46-.36,2.2-1.15,5.57.92,7.1.29.22,2.05,1.03,2.32,1.05.8.08,1.11-1.21,1.79-1.06,1.32.3-.83,3.57.93,4.11M52.28,246.36c-.94-.88-3.02,4.21-3.19,4.84-.72,2.68-.47,5.29-.45,8,2.84,2.21,5.91,4.44,7.56,7.7,1.42-.78-.52-3.82.76-4.1.68-.15.99,1.13,1.79,1.06,4-.38,4.33-5.18,3.06-8.15-1.2,1.76-2.48,4.2-4.85,4.49-8.44,1.02-8.52-8.83-4.68-13.82M273.97,257.43c1.13-1.19,1.05-3.7.88-5.29-.8-7.23-9.44-8.84-13.82-13.26-.26,14.64-6.52,28.54-14.19,40.7l4.64,3.36c.42-.1,2.49-3.73,2.4-4.23-.13-.7-4.28-3.74-3.67-4.35,1.45-.17,3.8,3.69,4.84,2.97.27-.19,2.64-5.77,2.58-6.1-.19-1.01-3.8-1.98-3.68-3.6l4.47,2.24,1.87-4.85c-.87.39-4.43-1.95-3.73-2.62,1.1.09,3.41,2.24,4.29,1.12.19-.24,2.03-5.5,2-5.8-.08-.8-3.88-.91-3.68-2.42l4.1,1.12c.6-1.7,2.4-12.29,3.18-12.7.71-.38.54.52.52.89-.2,2.95-1.45,6.23-1.82,9.2,2.26-2.29,6.82-1.98,7.08,1.73.09,1.33-1.52,3.14-2.6,2.58-2.08-1.06,1.49-.95.96-2.83-.73-2.6-6.17-1.47-3.37,1.85,1.67,1.98,4.94,2.17,6.75.27M79.54,279.59c-7.8-12.2-13.69-26.01-14.38-40.7-4.04,4.45-12.68,5.98-13.6,12.92-.22,1.64-.32,4.4.85,5.63,1.61,1.69,4.45,1.72,6.19.29,3.89-3.18-1.47-5.32-2.7-2.67-.89,1.91,1.59,1.88,1.6,2.32.03,1.43-3.31.79-3.38-1.48-.11-3.86,4.79-4.53,7.11-2.07-.37-2.96-1.62-6.24-1.82-9.2-.02-.36-.2-1.26.52-.89.78.41,2.58,11,3.18,12.7,5.43-1.94,5.35-.82.42,1.3.89,1.29,1.21,4.79,2,5.8.88,1.12,3.19-1.04,4.29-1.12.7.67-2.86,3.01-3.73,2.62l1.87,4.85,4.47-2.24c.12,1.62-3.49,2.59-3.68,3.6-.06.33,2.31,5.91,2.58,6.1,1.04.72,3.39-3.14,4.83-2.97.61.61-3.54,3.64-3.67,4.35-.1.5,1.98,4.14,2.4,4.23l4.64-3.36ZM173.27,327.78c.18.2,4.6.01,5.37-.05,35.32-2.89,76.14-48.6,80.85-82.73.26-1.88.75-5.28.42-7.04-.24-1.28-2.08-1.78-2.24-3.18l-1.6,10.16c-6.03,28.54-24.68,54.99-50.05,69.46-9.96,5.68-21.59,9.89-33.11,10.4.4.58.27,2.88.37,2.99M153.48,324.79c-6.68-.17-13.62-1.91-19.88-4.21-31.41-11.48-56.9-42.98-63.28-75.65l-1.6-10.16c-.15,1.4-1.99,1.9-2.24,3.18-.33,1.76.16,5.15.42,7.04,4.7,34.13,45.52,79.85,80.85,82.73.77.06,5.19.25,5.37.05.1-.11-.03-2.41.37-2.99M259.11,206.44c-6.62-2.8-6,1.59-4.76,6.45.96,3.75,3.12,7.05,4.82,10.49-.27.51-.99.08-1.33-.16-1.2-.85-3.55-5.86-3.9-7.49-.54-.07-.68.99-.71,1.34-.44,4.74,4.1,9.42,7.06,12.67.13.94-.61.58-1.1.35-1.21-.57-2.21-1.89-3.19-2.78-.87,2.26,1.75,5.53,3.18,7.27,2.43,2.95,5.72,5.93,9.33,7.29l-4.8-8.83c-3.14-8.43-4.46-17.6-4.59-26.6M67.22,223.57c.99-2.71,2.91-5.15,3.92-7.84,1.62-4.36,4.07-13.01-3.87-9.28-.13,9-1.45,18.17-4.59,26.6l-4.8,8.83c3.6-1.36,6.89-4.34,9.33-7.29,1.54-1.86,3.81-4.81,3.37-7.27-1.22.76-2.04,2.16-3.37,2.79-.49.23-1.23.59-1.1-.35,3.36-3.66,8.27-8.59,6.71-14.01l-3.57,6.7c-.54.7-1.02,1.31-2.03,1.14M270.74,201.91l-.38-.94c-1.62,2.27-5.06,5.47-3.17,8.41l6.53-8.4c-.57-.73-2.89,1.08-2.98.94M55.64,201.91c-.09.13-2.4-1.66-2.98-.94l6.53,8.4c2.65-1.5-3.24-8.99-3.54-8.59v1.12ZM270.37,235.89c.33.25,1.13-.26,1.08-.88-.04-.42-.99-1.48-1.26-2.11-3.06-7.01-4.99-18.3-5.06-25.93-.04-4.23.54-8.52.78-12.7.02-.41.24-1.42-.39-1.32-.72,7.27-1.22,15.28-.75,22.59.29,4.52,1.96,11.3,3.38,15.67.2.61,2.02,4.53,2.23,4.69M56.01,235.89c.21-.15,2.03-4.07,2.23-4.69,1.42-4.37,3.08-11.15,3.38-15.67.47-7.31-.03-15.32-.75-22.59-.98.63-.04,2.63,0,3.55.29,6.89.6,14.38-.46,21.19-.67,4.25-2.5,11.31-4.21,15.22-.28.63-1.23,1.7-1.26,2.11-.06.62.74,1.13,1.08.88M274.85,194.06c-6.3,2.02-2.55-.87-1.31-3.74.89-2.07,1.31-4.5,1.68-6.72-2.39,3.03-6.69,4.95-7.68,8.93-.55,2.23-.49,5.19-.53,7.5l3.28-8.1,1.19-.68c-1.33,3.64-3.19,7.14-3.73,11.02.82-.59,1.38-1.84,2.09-2.57.49-.5,5.82-4.86,5-5.64M59.37,200.04c.03-4.04.02-8.69-2.98-11.76-.73-.75-1.83-1.14-2.62-1.86-.96-.88-1.43-2.16-2.6-2.81.37,2.22.79,4.64,1.68,6.72.38.87,2.42,3.7,2.41,3.93-.02.41-.82.57-1.26.55-.47-.02-2.93-1.37-2.46-.18l7.09,7.66c-.39-3.65-2.33-6.81-3.35-10.28-.15-.53-.8-1.05.17-.92l1.38,2.36,2.55,6.6ZM302.48,144.38c-3.14-5.36-10.66-7.56-16.51-6.24-8.82,1.99-14.41,11.69-17.48,19.5-3.98,10.14-7.54,22.27-7.09,33.25.02.45-.28,1.39.37,1.3.28-6.6,2.04-13.07,4.01-19.33,3.12-9.92,8.58-23.67,17.9-29.15,2-1.18,6.96-3.01,8.7-1l-5.22,1.12c-9.7,3.77-14.4,14.35-17.94,23.52-5.16,13.39-6.59,27.41-8.6,41.45-.66,4.58,2.47,18.82,4.32,23.36.99,2.44,5.52,10.97,7.92,11.51.91.2,3.89-.16,4.5-.76.91-.88,1.37-5.87.21-6.58-1.6-.98-4.55-1.3-5.44.78-1.83,4.24,4.12,4.16,3.48,1.27-.11-.49-1.88-.5-.59-1.39,1.64-1.13,2.3,1.29,1.99,2.74-.71,3.3-6.3,2.79-6.86-.46-.66-3.84-1.79-3.89-2.95-7.13-6.49-18.07-4.27-41.74,3.1-59.26,4.71-11.19,9.39-22.29,21.53-26.65,3.79-1.36,6.62-1.62,10.65-1.87M64.97,192.19c.08-3.17-.05-6.36-.37-9.52-1.19-11.46-7.98-33.75-17.17-41.09-7.2-5.75-18.33-5.08-23.53,2.8,2.11.67,4.33.14,6.45.47,3.96.61,9.95,3.8,12.98,6.44,5.25,4.58,11.21,17.28,13.72,24,6.47,17.33,8.47,39.22,2.14,56.86-1.16,3.23-2.29,3.29-2.95,7.13-.62,3.57-7.34,3.96-6.91-.92.21-2.44,2.62-1.53,2.59-.78-.02.39-1.36.19-1.12,1.46.42,2.24,4.74,1.99,3.57-1.67-.91-2.84-5.74-1.63-6.13-.49-.34,1.01,0,5.26.78,6.03,1.12,1.08,4.6,1.1,5.89-.1,6.32-5.88,9.39-19.01,10.41-27.31.48-3.91.17-4.97-.3-8.57-.88-6.59-1.16-13.58-2.3-20.11-2.11-12.16-10.45-39.01-23.49-42.98l-5.22-1.12c.67-.95,1.32-.99,2.4-.94,15.17.71,23.39,27.17,26.55,39.21l2.04,11.22ZM311.07,141.77c2.68-5.94-6.64-8.79-10.08-5.04,2.87-.05,6.07-1.04,8.21,1.5l1.86,3.54ZM25.39,136.91c-3.1-4.12-12.85-1.05-10.08,4.86l1.87-3.54c2.08-2.42,5.43-1.78,8.21-1.31M284.56,124.97l-5.6-1.12c.84,2.11,2.22,4.1,2.62,6.34l2.98-5.23ZM47.42,123.85l-5.6,1.12c-.37.41,2.96,4.1,2.62,5.22l2.98-6.34ZM289.79,123.1c-.36-.32-3.31,2.33-3.72,2.79-3.24,3.65-3.72,7.37-3.74,12.14,3.78-.99,2.28-2.42,2.65-5.38.45-3.53,2.42-7.01,4.81-9.56M39.35,125.2c-.61-.6-1.71-2.24-2.75-1.91,2.44,2.14,4.41,6.19,4.81,9.38.37,2.93-1.14,4.39,2.65,5.38.02-5.76-.65-8.86-4.71-12.84M281.14,138.73c.19-.3.14-6.37-.02-7.14-.22-1.06-3.61-8.06-4.29-8.41-1.01-.51-3.37-.61-4.59-1.2,1.89,6.67,3.57,13.53,3.36,20.54.53-1.27,5.36-3.51,5.54-3.79M54.14,121.98c-1.13.55-4.31.82-5.04,1.49-.44.41-3.78,7.64-3.9,8.42-.12.76-.14,6.54.04,6.83.18.28,4.97,2.38,5.36,3.79.2-6.99,1.55-13.85,3.54-20.54M317.42,124.96c.01-1.54-.95-3.43-2.61-3.73l2.61,3.73ZM11.57,121.23c-1.66.3-2.62,2.19-2.61,3.73l2.61-3.73ZM318.07,126.18c-.21-.21-.97-.18-1.43-.62-.47-.46-4.11-5.37-4.83-4.7,1.54,2.11,2.25,4.74,3.8,6.84,1.49,2.02,4.37,4.97,7.03,4.92-1.38-.96-2.43-1.54-3.29-3.06-.46-.8-1.16-3.26-1.28-3.39M269.99,151.48c.06-2.38,3.44-5.06,3.95-6.7,1.12-3.61-1.45-18.97-3.16-22.66-.56-1.21-1.8-1.23-3.02-1.27.58,7.65,2.82,15.25,2.61,22.97-.05,1.91-.51,4.43-.7,6.4-.04.42-.34,1.34.32,1.26M58.63,120.86c-1.22.03-2.46.06-3.02,1.27-1.71,3.69-4.28,19.04-3.16,22.66.51,1.64,3.89,4.32,3.95,6.7.67.09.37-.84.33-1.26-.19-1.97-.65-4.49-.7-6.4-.21-7.7,2-15.32,2.61-22.97M14.56,120.86c-.72-.67-4.36,4.24-4.83,4.7-.45.44-1.22.41-1.43.62-.13.13-.83,2.59-1.28,3.39-.93,1.63-2.05,2-3.29,3.24,5.88-1.27,8.17-7.27,10.83-11.94M254.18,154.97c-5.33-5.3-12.89.63-9,8.07,3.01,5.76,10.02,6.27,15,2.72,13.07-9.32,7.8-31.64,6.07-45.08-.38-1.46-3.22-1.52-4.29-2.81l1.31,8.03c.57,9.75,2.53,21.28-4.11,29.5-.56.69-1.87,1.39-2.05,1.69-.63,1.07.34,2.16-1.29,3.93-4.46,4.84-10.1-3.88-5.03-4.66,1.68-.26,2.68-.06,2.4,1.84-4.44-1.6-2.52,3.8.74,2.42,2.22-.94,1.75-4.16.25-5.65M69.38,157.16c-.07-.12-1.61-1.11-2.15-1.77-6.64-8.04-4.67-19.89-4.11-29.49l1.31-8.03-4.05,2.32c-1.88,11.44-4.19,22.75-1.57,34.29,1.63,7.17,7.79,14.3,15.7,13.43,5.4-.59,10.14-8.27,6.53-12.88-3.72-4.76-12.17.16-9.72,4.5,1.24,2.2,4.5,1.61,4.48-1.1-.65-1.14-1.65-.16-2.6-.23-.66-3.03,4.39-2.27,4.44.18.08,3.87-5.4,5.59-7.6,2.04-.86-1.39-.3-2.63-.66-3.27M307.34,116.38l-5.97,3.35c2.26-.01,4.52-1.7,5.97-3.35M25.02,119.37l-5.97-2.99c.99,1.22,2.76,2.51,4.21,3.07.38.14,1.74.74,1.76-.08M289.5,114.97c-1.29,1.29-.09,3.91,1.51,4.49.52.19,5.21-.35,5.97-.56,3.31-.91,4.91-7.69,1.02-8.88-1.17,1.12.72,4.49.37,4.85-.72.72-1.88-1.39-2.48-1.81-.6-.42-3.19-1.7-2.68.07.33,1.15,1.64,1.58,1.43,2.86-.62.62-3.31-2.86-5.14-1.03M28.38,110.03c-3.91,1.21-2.26,7.98,1.02,8.88.79.22,4.81.73,5.54.66,2.81-.26,3.75-5.83-.3-5-1.14.24-1.6,1.68-2.89,1.43-.17-1.53,1.79-2.09,1.49-3.73-2.21-.35-2.83,1.25-3.93,2.22-2.64,2.33.33-3.54-.92-4.46M281.15,115.21c.29-2.38.03-4.46-2.01-5.93-.58,1.22,1.38,2.93.18,3.91-.43.36-3.35,1.69-3.73,1.31-1.15-1.16,2.05-1.11,1.49-2.42-.42-1-2.61-.73-2.93.45-.85,3.14,5.07,3.68,7,2.68M50.78,114.51c-.38.39-3.7-1.14-3.94-1.48-.76-1.07.96-2.57.4-3.75-2.04,1.48-2.31,3.55-2.01,5.93,1.96.54,4.86.89,6.4-.69,2.34-2.38-2.19-4.78-2.34-1.52.77-.11,2.19.8,1.49,1.5M312.81,104.55c-1.65-1.79-4.45-3.06-5.74-.22-1.91,4.22,4.3,5.59,2.89,1.58,1.68-.55,2.26,1.41,2.27,2.8.02,2.99-2.89,7.37-4.89,9.52,5.43-1.67,9.96-8.82,5.47-13.69M284.18,105.54c1.04-1.12-3.18-3.11-4.11-2.98.16.81,3.72,3.4,4.11,2.98M46.3,102.56c-.92-.13-5.15,1.86-4.11,2.98.39.42,3.94-2.17,4.11-2.98M16.43,105.92c-1.56,3.27,3.21,2.91,3.31.2.19-5.23-5.8-3.68-7.23.18-2.21,5.96,1.45,9.66,6.53,11.94-2.33-2.29-6.53-9.1-4.14-12.09.38-.47,1.01-.18,1.53-.23M286.42,100.69c-1.62-.33-.86.57-1.46,1.33-.37.47-1.2.31-1.15.9l2.05,1.12c.98-.79.46-2.23.56-3.36M41.05,100.71c-.13-.11-.79.03-1.1-.02.1,1.13-.42,2.56.56,3.36l2.05-1.12c.05-.6-.78-.43-1.15-.9-.33-.42-.31-1.27-.36-1.31M279.7,101.06c1.65-.03,5.35,1.51,4.41-1.6-.73-2.44-5.06,1.04-4.41,1.6M46.68,101.06c.65-.56-3.68-4.04-4.41-1.6-.93,3.11,2.76,1.57,4.41,1.6M65.72,98.82c1.42-3.83-3.86-2.84-5.79-1.12-1.82,1.62-2.72,6.23-.45,7.56,5.71,3.36,11.07-.85,15.58-4.01-1.85-1.17-2.13.19-3.46,1.02-2.63,1.66-9.67,4.33-10.33-.67-.46-3.45,1.63-4.36,4.45-2.78M251.32,101.07c2,1.36,6.18,4.85,8.43,5.2,2.28.36,7.9.04,8.35-2.8.38-2.39-.06-4.64-2.09-6.08-2.09-1.49-6.54-2.4-5.35,1.43,3.01-1.85,5.4-.09,4.31,3.38-1.19,3.8-7.1,1.97-9.51.51-1.61-.97-2.11-2.47-4.14-1.65M284.56,97.7c1.04-1-6.17-4.82-4.85,1.12,1.59-1.17,2.85-1.94,4.85-1.12M46.67,98.82c1.37-4.05-3.84-4.01-4.85-1.67-.4.94,1.66.12,2.33.25.9.17,1.73,1.02,2.52,1.43M278.58,99.57c.3-1.1-.14-5.77-2.04-5.23-1.49.42,1.1,4.89,2.04,5.23M47.8,99.57c.94-.33,3.54-4.8,2.05-5.23-1.91-.54-2.34,4.12-2.05,5.23M271.43,94.02c-.26-.16-1.95-.13-2.38-.05-1.4.26-1.11,2.04-.36,2.24.74.2,1.75-1.31,2.04-.18.7,2.77-2.82,1.17-2.98,1.31.67,1.04,1.52,2.04,1.5,3.36,2.17-.46,3.61-5.78,2.18-6.67M58.63,97.33c-.18-.14-3.68,1.47-2.99-1.31.29-1.13,1.3.38,2.04.18.75-.2,1.04-1.98-.36-2.24-1.94-.36-2.64-.24-2.8,1.68-.22,2.61.6,3.41,2.43,5.04l1.68-3.36ZM260.28,95.46c-3.92.25-7.29-2.74-11.2-2.61.78,1.47,4.06,2.03,4.66,3.36.61,1.34-.27,3.26.16,3.93.98,1.52,6.7,3.54,8.36,3.11,1.74-.45,2.97-4.77-.1-4.06.51,2.88-1.92,1.02-2.57-.23-.86-1.66-.41-2.24.7-3.5M77.3,92.85c-3.91-.12-7.28,2.87-11.2,2.61.97,1.17,1.54,1.66.83,3.26-.55,1.26-3.23,3.48-2.71.46-3.32-.56-1.74,4.11.5,4.1,2.05-.01,5.03-1.08,6.71-2.29,2.08-1.5.72-1.73.98-3.87.29-2.44,3.65-2.41,4.88-4.28M290.16,120.86c-4.6.05-9.38-.83-13.83-2.04-12.83-3.49-21.41-9.92-29.26-20.41-1.09-1.46-3.24-5.48-4.16-6.29-.95-.84-3.51-1.36-4.65-2.26-.2,1.8,1.48,2.78,2.18,3.97,4.32,7.32,11.06,15.8,18.18,20.66,7.73,5.28,17.59,7.15,26.56,9.33,1.39.33,1.83-.99,2.78-1.63l2.21-1.34ZM36.22,121.23c2.2-.07,2.96,2.79,4.98,2.6,8.97-2.19,18.83-4.05,26.56-9.33,7.12-4.87,13.85-13.34,18.18-20.66.7-1.19,2.39-2.18,2.19-3.97-1.14.89-3.7,1.42-4.65,2.26-.92.81-3.07,4.83-4.17,6.29-10.55,14.1-24.35,21.55-42.17,22.45-.42.02-1.02-.24-.92.37M265.88,90.23l-.35-2.08-3.39-.17v2.24c.74-.14,2.58-.8,3.16-.76.41.03-.06.93.58.76M64.23,87.99l-3.39.17-.35,2.08c.63.17.17-.74.58-.76.57-.04,2.41.62,3.15.76v-2.24ZM259.72,92.1c-.82-.25-4.37,0-5.6,0-.91,0-1.8-1.12-1.31-1.12h7.1c.04-.33-.71-1.77-.79-1.83-.2-.15-4.35.83-4.99.71-.15-.03-.63-.43-.39-.75.65-.86,3.26-.77,4.3-.75-.33-.63-1.81-1.38-2.45-1.48-2.91-.43-4.16,1.67-6.51,2.61-.31,1.03.71.68,1.15,1.27.3.4.28,1.18.4,1.28.13.11,2.57.3,3.39.54,1.19.35,5.52,2.4,6.23,1.35.18-.55.03-1.66-.52-1.83M66.47,90.98h7.09c.5,0-.4,1.12-1.31,1.12h-5.6c-.45,0-.76,1.35-.52,1.83.72,1.05,5.04-1,6.24-1.35.82-.24,3.26-.43,3.39-.54.12-.1.1-.88.4-1.28.44-.59,1.45-.24,1.15-1.27-2.34-.95-3.6-3.05-6.51-2.61-.64.1-2.12.85-2.45,1.48,1.04-.02,3.65-.11,4.3.75.24.32-.24.72-.39.75-.65.12-4.79-.86-4.99-.71-.08.06-.93,1.7-.79,1.83M261.03,89.85c.1-2.23.12-4.36-2.61-3.36l.55,1.12,2.05,2.23ZM67.96,86.5c-2.73-1-2.71,1.12-2.61,3.36l2.05-2.23.56-1.12ZM259.54,85.37c-1.52-2.95-7.13-3.07-7.09.75,2.68-1.23,4.44.53,7.09-.75M246.09,88.36c.08-.94.09-1.49-.53-2.27-.17-.21-4.19-2.82-4.52-2.95-1.36-.54.57,3.41.73,3.75,1.34,2.79,5.91,10.61,8.03,12.51,1.9,1.7,3.97-.46,2.65-2.65-.83-1.38-5.3-2.39-5.99-4.46.8-1.06,1.91.89,2.98-.37l-6.72-4.68c-.01-2.38,3.22,1.31,3.35,1.13M85.89,83.14c-.22-.24-5.14,2.75-5.41,3.37-.27.61-.22,1.23-.19,1.86.8-.57,3.31-3.19,3.35-1.13l-6.72,4.68c1.07,1.26,2.17-.69,2.98.37-.69,2.07-5.16,3.08-5.99,4.46-1.12,1.87.25,4.03,2.27,3.02.27-.13,2.73-3.39,3.14-3.96.98-1.38,7.3-11.87,6.57-12.66M73.93,86.12c.02-3.81-5.37-3.61-7.09-.93,2.52,1.67,4.41-.39,7.09.93M264.02,82.76c-1.42-.21-2.48.72-3.73,1.12,1.13,2.63,1.5,3.73,4.48,2.42,1.28-.56,1.58-1.45,1.49-2.8l-4.48,1.11,2.24-1.86ZM66.1,83.89l-3.54-1.13,2.05,1.87c-1.41.4-5.97-2.91-4.2.66.47.96,3.02,1.8,3.95,1.61.17-.03,1.92-2.76,1.75-3.01M254.67,81.99c-.09-2.4-2.12-3.83-4.46-3.34.97.45,2.06,3.96,2.25,4.1.32.23,1.59-.95,2.22-.77M76.18,78.66c-2.35-.5-4.37.94-4.46,3.34.63-.19,1.9,1,2.22.77.19-.14,1.28-3.65,2.25-4.1M249.45,80.15v6.54c0,1-.91.61-1.08-.78-.45-3.7,1.81-8.38-3.77-7.62-1.1,1.1,2.29,7.08,2.55,8.5.24,1.32-.91,3.7,2.01,1.58,2.58-1.88,2.75-6.12.3-8.21M76.93,86.68c-.41-1.61.3-4.72,0-6.54-2.45,2.09-2.28,6.33.3,8.21,2.92,2.13,1.77-.26,2.01-1.58.26-1.42,3.65-7.4,2.55-8.5-.85-.16-3.23.09-3.65.83-.67,1.17.55,6.43-.46,8.14-.13.1-.71-.43-.74-.56M239.74,86.5c-.96-1.86-2.47-7.68-3.54-8.97-.54-.64-1.66-.32-2.43-.37-.32.27,3.63,6.63,4.1,7.29.52.74,1,1.65,1.87,2.04M92.61,77.16c-.76.05-1.89-.27-2.43.37-1.08,1.29-2.58,7.11-3.54,8.97.88-.4,1.35-1.3,1.87-2.04.46-.66,4.41-7.02,4.1-7.29M241.61,89.85c-1.27-1.27-2.77-2.33-3.89-3.76-1.44-1.84-4.26-8.1-5.26-8.93-.8-.66-1.82-.33-2.8-.37,3.16,4.71,6.26,11.16,11.95,13.07M96.72,76.79c-.97.04-2-.29-2.8.37-1,.83-3.82,7.09-5.26,8.93-1.12,1.43-2.62,2.49-3.89,3.76,5.69-1.9,8.79-8.35,11.95-13.07M295.01,80.52c-1.46-3.49-2.61-5.05-6.65-5.14-2.53-.05-2.22,2.68-4.18,3.28.15.77,1.59-.04,2.36.02,2.89.23,5.57,1.62,8.46,1.84M42.19,78.66c-1.97-.59-1.65-3.33-4.18-3.28-4.04.09-5.19,1.65-6.65,5.14,2.89-.22,5.57-1.61,8.46-1.84.77-.06,2.22.75,2.36-.02M295.78,80.13c.61.42,1.78-.49,1.86-1.31.29-2.99-5.77-5.01-8.22-4.65l2.99.93c1.83.05,3,4.77,3.38,5.03M36.59,74.17c-2.39,0-6.5,1.03-7.56,3.46-.71,1.63.66,3.13,1.57,2.5.22-.15,1.27-3.69,2.61-4.68l3.38-1.28ZM295.01,73.79c-.55-.82-1.78-2.79-2.62-3.16-2.76-1.23-1.99.59-2.61,2.42,1.83-.23,3.49.33,5.23.75M283.81,76.78c2.92-1.85,2.37-5.68-1.12-6.35.7,2.02,1.2,4.2,1.12,6.35M43.69,70.44c-3.93,1.03-3.43,3.92-1.49,6.72l1.49-6.72ZM36.22,70.43c-2.51-.52-3.67,1.54-4.86,3.36,1.74-.41,3.39-.98,5.23-.75l-.37-2.61ZM288.29,74.17c-.58-1.03.69-1.79.71-2.79.08-3.76-4.52-5.98-6.31-2.07,2.28.09,5.1,2.51,4.11,4.86h1.49ZM263.27,73.42c1.27-1.96,1.98-4.07,4.85-4.11-.87-1.89-2.21-2.47-4.3-2.24-3.27.35-2.5,3.53-3.73,4.11-1.17.55-.1-1.97-.22-2.18-.04-.07-1.24-.68-1.37-.71-5.15-1.07-4.02,5.25-3.18,8.41.22.83,1.64,4.88,1.96,5.42.24.4,1.72.55,2.06,1.37.33-.91,3.1-1.74,3.19-2.1.24-1-.15-2.82,0-4.04.15-1.3.7-2.66.74-3.93-1.23,1.89-1.65,2.65-2.52,4.78-.23.56.22,1.01-.84.82-.28-1.85.31-3.07,1.19-4.59.53-.92,2.26-3.67,2.17-1.01M63.11,73.42c.04,1.27.6,2.63.74,3.93.14,1.22-.25,3.04,0,4.04.08.36,2.86,1.18,3.19,2.1.34-.82,1.82-.96,2.06-1.37.32-.54,1.74-4.59,1.96-5.42.85-3.16,1.98-9.48-3.18-8.41-.13.03-1.34.64-1.37.71-.12.21.95,2.73-.22,2.18-1.23-.59-.46-3.76-3.73-4.11-2.09-.22-3.43.35-4.3,2.24,2.88.04,3.58,2.15,4.85,4.11-.09-2.66,1.64.09,2.17,1.01.88,1.53,1.48,2.74,1.19,4.59-1.06.19-.61-.26-.84-.82-.87-2.14-1.29-2.89-2.52-4.78M43.69,69.31c-1.82-3.68-5.96-2.06-6.28,1.78-.11,1.28,1.23,1.93.68,3.08h1.49c-.99-2.35,1.83-4.76,4.11-4.86M269.62,64.84c2.07-.99,7.91,4.95,8.4,4.85,1.49-.32-.4-2.82-1.16-3.31-1.05-.69-6.86-2.46-8.2-2.63-2.86-.36-5.44.06-7.59,2.06-.66.61-2.09,2.21-.79,2.39.69-2.47,4.14-3.15,6.34-2.41,2.28.77,6.67,9.83,9.45,11.09.47.21.87.37,1.39.28.23-.24-.43-6.41-.57-6.71-.96-2.11-5.75-3.78-7.27-5.61M66.1,68.19c1.34-.2-.27-1.91-.79-2.39-2.27-2.09-4.91-2.44-7.9-2-1.31.19-6.86,1.9-7.88,2.57-1.17.77-2.62,3.72-.8,3.31.72-.16,5.66-5.99,8.03-4.67-1.64,1.5-6.38,3.46-7.27,5.42-.14.31-.8,6.47-.57,6.71.52.08.93-.07,1.39-.28,2.36-1.07,6-8.02,7.94-9.98,2.22-2.25,6.74-1.77,7.85,1.3M154.23,74.54c-2.65-.22-5.4-1.31-7.41.99-4.38,5,3.43,13.05,8.78,10.65,6.58-2.95,8.43-13.07,2.91-17.98-14.66-13.03-38.62.35-54.98,3.26-.63.11-1.2-.32-1.98-.15-.82.18-1.02,1.34-1.28,1.35-.08,0-.54-.73-1.47-.76-1.35-.04-3.82.83-5.29,1.1-2.43.45-2.86-.79-2.76,3.03,13.56-.73,25.88-7.08,39.14-9.22,5.94-.96,13.22-1.2,19.03.53,4.5,1.33,9.48,6.75,8.21,11.78-.79,3.11-8.13,5.28-7.67.55.12-1.2,1.99-3.95,3.28-2.32.16.8-2.51,1.42-1.69,3.16.55,1.17,2.1.46,2.95-.05,3.23-1.93,2.45-4.85.43-7.42-3.25-4.12-6.77-5.24-11.94-5.61-15.53-1.12-29.33,6.02-44.17,9.07-1.42,2.56-2.95,5.1-4.64,7.49-.6.85-3.35,3.72-3.45,3.97-.15.38.2.99-.11,1.76-2.47,6.01-11.64,17.52-16.55,21.94-1.55,1.39-6.4,4.28-7.24,5.47-.42.6-1.08,3.48-1.24,4.36-.67,3.82-1.06,9.43-1.21,13.35-.3,7.62.28,15.33,5.79,21.1,5.22-8.71,17.16-3.87,13.33,6.61-2.52,6.9-11.39,8.94-17.22,4.75l-4.15-3.7c5.31,13.32,4.94,27.52,5.24,41.64,3.97-1.15,7.21-2.05,7.32,3.24.03,1.49-1.03,4.58-.87,5.49.28,1.64,1.76,2.11,1.36,5.25-.3,2.29-2.71,5.13-2.88,6.46-.17,1.3.63,2.68.12,4.6-.35,1.33-1.94,2.29-2.06,3.57-.07.7.31,3.09.42,4.03,4.48,39.12,42.19,84.24,83.41,85.8.37.01,2.99-.02,3.12-.11.28-.19.56-1.44,1.66-1.9,1.01-.41,1.69.17,1.75.11.39-.36,1.35-7.01,4-4.75,1.08.92,1.79,4.57,1.98,4.75.07.06.74-.52,1.75-.11,1.12.46,1.34,1.67,1.69,1.91.9.64,10.48-.88,12.24-1.24,36.63-7.51,66.94-43.67,73.45-79.68.37-2.07,1.41-7.01,1.24-8.81-.12-1.28-1.71-2.24-2.06-3.57-.51-1.91.29-3.3.12-4.6-.17-1.33-2.58-4.17-2.88-6.46-.41-3.14,1.07-3.61,1.36-5.25.16-.91-.9-4-.87-5.49.11-5.28,3.35-4.38,7.32-3.24.37-10.87-.08-21.85,2.43-32.5.75-3.2,2.04-6.15,2.8-9.33l-2.44,2.6c-5.76,5.51-16.05,4.37-18.92-3.47-3.83-10.48,8.11-15.32,13.32-6.61,5.5-5.77,6.09-13.48,5.79-21.1-.15-3.92-.55-9.53-1.21-13.35-.15-.89-.82-3.77-1.24-4.36-.84-1.19-5.69-4.08-7.24-5.47-4.91-4.42-14.07-15.92-16.55-21.94-.32-.77.04-1.38-.11-1.76-.15-.37-2.86-3.13-3.46-3.97-1.7-2.39-3.21-4.95-4.64-7.5-14.83-3.05-28.67-10.19-44.17-9.07-5.17.37-8.69,1.49-11.94,5.61-2.02,2.56-2.8,5.48.43,7.42.85.51,2.4,1.22,2.95.05.81-1.74-1.85-2.36-1.69-3.16,1.29-1.63,3.16,1.13,3.28,2.32.46,4.72-6.89,2.55-7.67-.55-1.28-5.03,3.7-10.44,8.21-11.78,5.81-1.72,13.09-1.48,19.03-.53,13.26,2.14,25.58,8.49,39.14,9.22.1-3.82-.33-2.57-2.76-3.03-1.47-.27-3.94-1.15-5.29-1.1-.93.03-1.39.76-1.47.76-.27,0-.47-1.17-1.28-1.35-.78-.17-1.35.26-1.98.15-3-.53-7.48-1.7-10.6-2.48-13.42-3.37-27.91-10.99-41.33-2.96-4.85,2.9-6.88,5.73-6.2,11.65.38,3.27,4.13,8.84,7.66,9.07,5.11.33,11.37-7.01,7.01-11.42-1.97-2-4.02-1-6.35-.82-1.91.15-.57-.96.52-1.36,6.07-2.2,10.25,3.4,8,9.12-1.22,3.12-5.9,6.14-9.24,6.02-3.51-.13-8.89-5.96-8.77-9.65-1.03-.15-.57.12-.75.56-1.47,3.68-2.48,6.25-6.33,8.24-6.17,3.2-15.18-4.96-11.43-11.8,1.53-2.78,5.53-3.75,8.31-2.3.53.27.99.5.85,1.2M221.45,69.31c-1.17-4.43-5.09-6.95-9.53-7.11-.7-.03-3.11-.04-3.7,0-2.51.21-5.17,1.15-7.67,1.51l11.12,3.62,9.79,1.97ZM125.84,63.72c-2.46-.42-5.2-1.31-7.67-1.51-.59-.05-3.01-.03-3.7,0-4.44.17-8.36,2.68-9.53,7.11l9.79-1.97,11.12-3.62ZM202.4,61.85l-7.47.74,2.73.63,4.74-1.37ZM131.45,62.22l-7.47-.37,4.74,1.37,2.73-.99ZM179.99,55.87c-2.75.19-5.41,2.71-6.34,5.22l3.18-2.98,3.16-2.25ZM152.73,61.1c-.93-2.52-3.59-5.04-6.34-5.22l3.16,2.25,3.18,2.98ZM249.83,52.51c-1.29-.04-2.32-.92-3.58-1.09-.95-.13-5.7.17-6.09.77-.3.47.47,2.16-1.07,1.31-.12-.07.04-.69-.63-.63-2.38.23-7.62,5.79-8.52,7.96l-2.91,9.6c2.81.04,5.37,1.35,8.21,1.49-1.53-7.04,3.05-15.66,9.44-18.76l5.13-.66ZM86.22,52.19c-.37-.56-4.83-.99-5.74-.8l-3.92,1.49c9.53-1.61,16.25,10.88,14.56,19.05,2.84-.14,5.4-1.45,8.21-1.49-1.39-3.98-2.1-8.97-4.7-12.29-1.1-1.4-5.28-5.51-7.03-5.28-.22.03-.25.6-.32.64-1.52.88-.77-.86-1.07-1.31M212.48,48.02c-2.31-2.42-2.44-4.77-6.36-3.55-5.43,1.7-6.95,7.93-11.09,9.82-1.41.65-5.8,2.47-6.45.46,3.86-.4,8.07-2.16,9.71-5.98-4.45,1.34-9.1.38-13.62.75-4.57.37-12.74,3.55-15.66,7.12-2.78,3.4-3.4,7.67-3.95,11.92,1.48-1.86,4.32-2.92,5.8-4.47,2.09-2.19,2.01-5.34,5.02-7.68,2.85-2.22,3.21-1.39,6.19-1.28.92.04,2.68-1.02,2.03.54-.25.59-2.46.75-3.36,1.12-2.27.94-5.08,3.93-6.72,5.79,8.39-2.27,17.31-1.5,25.97-1.47,4.21.01,11.39-.8,15.21.44,1.78.58,3.28,1.82,4.75,2.9-.24-3.56-1.09-10.14-5.77-10.1-3.31.03-1.54,4.34-3.92,5.09-1.51.48-2.77-.57-3.45-1.83-2.58-4.7.96-8.86,5.68-9.6M137.8,54.75c-.67,2.06-5.58.02-6.98-.68-2.93-1.48-4.72-6.19-8.37-8.44-4.6-2.84-5.67-1.51-8.56,2.39,4.8.71,8.4,5.2,5.55,9.85-.71,1.15-1.93,2.02-3.32,1.58-2.38-.76-.61-5.07-3.92-5.09-4.69-.04-5.54,6.54-5.77,10.1,1.47-1.09,2.97-2.32,4.75-2.9,3.82-1.25,11-.43,15.21-.44,8.66-.02,17.58-.8,25.97,1.47-1.64-1.86-4.45-4.84-6.72-5.79-.9-.37-3.11-.53-3.36-1.12-.65-1.56,1.11-.5,2.03-.54,2.98-.11,3.34-.94,6.19,1.28,3.01,2.34,2.93,5.48,5.02,7.68,1.48,1.55,4.32,2.61,5.8,4.47-.56-4.32-1.21-8.73-4.11-12.13-2.33-2.74-8.76-5.61-12.3-6.37-5.57-1.19-11.14.22-16.63-1.3,1.18,3.86,5.84,5.58,9.52,5.98M208.38,39.06c-2.76.62-4.1.47-6.61-.67-.81-.37-.96-1.25-1.99-1.07-2.3.42-4.46,3.41-6.16,4.71-2.17,1.66-5.67,4.34-8.12,5.32-.76.3-1.96.03-2.14.66,3.36-.17,6.95.24,10.28.02,1.23-.08,4.84-.53,5.88-.85,1.11-.34,3.3-2.84,5.04-3.55,1.28-.53,2.8-.86,4.2-.85-.64-1.26-.7-2.38-.38-3.73M165.43,37.19c-1.63.42-2.85.42-4.48,0-.35,6.54-4.97,12.66-11.95,12.33l6.9,3.73c5.96,4.4,5.69,10.57,6.34,17.01.23,2.26,1.57,2.99,1.85.21.26-2.51.11-4.88.7-7.58,1.59-7.24,5.81-10.61,12.58-13l-4.85-1.31c-4.37-1.8-6.84-6.83-7.1-11.39M143.02,47.66c-4.25.92-14.58-10.87-16.94-10.39-.42.09-.92.88-1.47,1.12-2.51,1.14-3.85,1.28-6.61.67.51,1.33.18,2.47-.37,3.73,1.39-.01,2.91.32,4.2.85,1.74.72,3.93,3.22,5.04,3.55,1.03.32,4.65.76,5.88.85,2.71.18,6.23.1,8.98-.02.45-.02,1.39.28,1.3-.37M233.03,54.37c1.2-.53,2.11-1.51,3.24-2.17,1.26-.75,2.54-.32,2.76-2.1.74-6.24-1.57-12.01-5.06-17.01-.07,2.59,1.07,5.15,1.26,7.7.35,4.64-1.03,9.17-2.19,13.58M93.35,54.37c-1.16-4.42-2.54-8.95-2.19-13.58.19-2.56,1.33-5.11,1.26-7.7-3.49,5-5.8,10.78-5.07,17.01.21,1.78,1.49,1.35,2.76,2.1,1.12.67,2.03,1.64,3.24,2.17M173.27,37.57c-.28.25-2.67-.6-1.79,2.35.98,3.28,7.49,2.45,7.42-3.29-.12-9.12-11.82-6.13-12.33-.69-.43,4.61,3.22,10.61,7.74,11.99,1.42.43,6.47.7,7.55.1.04-.02-.42-.59-.04-.93.5-.45,3.44-1.14,4.63-1.75,4.89-2.52,8.22-7.42,13.32-9.07l-1.29-2.75c-6.08,2.21-10.63,8.92-17.58,9.29-1.08.06-2.11-.4-2.89-.3-.81.1-1.97.99-3.11,1.01-3.5.07-6.99-4.66-4.45-6.7,1.87-1.51,3.3.32,2.81.76M144.52,48.02c.52.29,5.18.41,6.07.28,5.29-.76,8.95-6.26,9.22-11.35.37-7.18-13.62-9.43-12.26.77.7,5.29,7.24,4.99,7.47,1.53.16-2.41-1.56-1.39-1.9-1.69-.45-.39.78-2.13,2.59-.91,2.07,1.4.48,5.05-1.37,6.05-3.1,1.68-3.65.08-5.97-.21-.78-.1-1.81.36-2.89.3-7.15-.38-11.43-7.31-17.77-9.19l-1.11,2.83c3.08-.01,4.99,3.06,7.13,4.64,1.78,1.32,4.54,3.45,6.43,4.39,1.15.57,3.86,1.14,4.4,1.61.38.34-.08.91-.04.93M225.18,37.57c-1.51-6.69-10.37-9.95-16.43-7.84.17,1.05.99,1.41,1.39,2.52.45,1.22.53,2.54.47,3.82,5.01-2.1,10.49-2.81,14.56,1.5M117.63,29.73c-6.05-2.11-14.92,1.15-16.43,7.84,4.11-4.31,9.51-3.63,14.56-1.5-.06-1.29.03-2.6.47-3.82.41-1.12,1.23-1.47,1.4-2.52M225.9,70.03c.28-.2,1.89-5.69,2.18-6.6,1.72-5.4,4.41-10.54,5.21-16.08,1.32-9.15-.44-16.06-7.73-21.93-5.8-4.68-17.32-4.3-22.61.93-2.27,2.24-3.71,6.45-1.84,9.33,2.08,3.2,8.34,3.21,8.27-.85-.02-.89-.72-3.27-1.64-3.55-1.75-.54-1.52.33-2.09,1.14-1.25,1.78-2.35-1.03.21-2.4.91-.48,3.4-1.78,4.28-2.07,5.68-1.9,14.33,2.44,16.23,8.24.64,1.95,1.4,3.99,1.98,5.86,1.59,5.11,2.78,9.56-.56,14.38-.66.54-.34-.77-.28-1.03.26-1.16.85-2.29.99-3.49.74-6.33-3.17-15.7-10.36-15.99-3.05-.12-9.37,1.33-8.57,5.47.18.93,3.08,5.46,3.83,5.91,1.81,1.09,5.17-.52,7.69,2.4.56.65,1.71,2.95.19,2.06-.75-.44-1.56-1.41-2.31-1.8-5.35-2.83-15,1.8-10.54,7.56.46.6,1.74.99,1.82.36.72-5.17,4-6.88,8.03-3.12,3.34,3.11,2.47,13.57,4.94,14.85.36.19,2.43.61,2.69.43M117.72,37.11c1.07,1.08,4.49,1.01,5.86.24,4.17-2.32,2.61-8.41-.34-11.18-5.38-5.05-16.65-5.39-22.41-.75-8.48,6.83-9.74,16.43-6.84,26.64.86,3.03,3.08,5.85,3.97,8.73.29.93.11,1.9.34,2.64.29.91,1.9,6.39,2.19,6.59.26.19,2.32-.23,2.68-.42,1.88-.98,2.36-9.57,3.06-11.87,1.1-3.59,6.35-7.1,9.1-3.11,1.15,1.38-.06,4.95,2.69,2.95,4.02-6.5-5.52-10.31-10.6-7.62-.75.4-1.56,1.36-2.31,1.8-1.52.9-.38-1.4.19-2.06,2.52-2.91,5.88-1.3,7.69-2.4.74-.45,3.65-4.98,3.83-5.91.8-4.15-5.52-5.59-8.57-5.47-7.2.28-11.1,9.66-10.36,15.99.19,1.61,1.14,3.07,1.08,4.71-3.78-4.22-2.58-9.35-1.02-14.28.58-1.84,1.27-3.7,1.88-5.59,1.89-5.86,9.24-10.2,15.3-9.17.92.16,4.65,2.02,5.64,2.57,2.19,1.23,1.23,4.07-.03,2.27-.23-.32-.12-.95-.71-1.16-2.73-.98-3.72,4.41-2.29,5.85M160.2,370.73c-2.01-5.08-4.38-10.37-8.02-14.57-.76-.88-4.46-3.97-4.6-4.36-.1-.26-.25-1.15.12-1.24,5.63,3.92,9.63,9.72,12.14,16.06.69.09.28-.75.2-1.14-2.63-13.67-18.72-23.75-31.13-27.51-4.6-1.4-9.32-.87-13.89-2.54-3.52-1.29-8.57-3.39-10.99-6.19-.43-.5-.89-1.77-.97-1.83-1.15-.99-.61,2.55-.4,3.18.12.35,1.74,2.02.6,2.04-1.96.04-2.58-4.62-3.1-5.85-1.2-2.83-3.23-2.56-5.84-3.12-.57-.12-1.2-.63-1.58-.67-.45-.04-2.36,1.8-2.53,2.18-.78,1.69,1.31,5.4-1.69,5.97,1.42-2.86-1.5-4.94-2.42-7.47-1.09-3.01-1.21-6.19-.94-9.33-4.22,2.86-2.52,7.37.38,10.45-2.33,0-2.73-2.72-3.92-4.1-2.86,3.71-.89,0-.77-1.81.38-5.89-4.32-9.46-3.15-14.99-4.21,3.71-7.45,5.89-6.74,12.16.12,1.04.77,1.86.78,2.22,0,.75-1.06,1.19-1.07,1.48,0,.45,2.39,2.87,2.92,3.37,2.87,2.7,10.47,8.91,13.86,10.42.46.21,3.76.5,2.58,1.71-.15.16-3.75-.48-4.32-.71-2.83-1.15-9.11-7.15-11.55-9.37-1.92-1.74-3.41-1.45-5.79-1.12-.65,3.26,2.89,3.79,3.92,5.23.7.99.33,2.09,1.09,3.02,1.12,1.37,5.24,1.13,6.52,3.56.94,1.78.28,3.42-1.82,3.5.07-1.36,1.77-1.3.77-2.82-1.32-2-4.55-1.8-6.23-3.49-.38-.13-1.41,1.38-2.28,1.74-3.48,1.42-6.72-1.02-7.15-4.62-.13-1.08.17-4.92-.09-5.32-.09-.14-1.79-.53-2.32-.85-2.21-1.36-2.33-2.71-5.66-2.58-1.52.06-4.74,1.84-3.48-.84,1.04-2.21,4.37-4.37,6.82-4.33.45,0,2.01.5,1.33,1.09-.36.32-5.99.72-5.97,2.99,2.41-.27,3.82-.37,5.95.96.65.41,1.01,1.18,1.79,1.57,3.34,1.69,6.35-.13,9.81.08l-4.86-6.52c-2.19-1.72-4.98-5.26-7.1-6.72-.66-.45-1.78-.52-1.85-.59-.11-.12-.33-1.23.55-1.11,2.94.39,10.41,9.09,12.51,11.58-.61-2.45-.86-4.7-.7-7.24.05-.83.69-1.88.61-2.61-.1-.85-1.8-2.6-2.06-3.86-1.1-5.39,2.31-9.76,4.77-14.11-3.4.39,1.1-3.65,0-5.79h-2.24c.4-2.21,1.2-7.38-2.35-6.26-.5.16-1.91,1.38-2.22,1.88-.82,1.34-3.16,7.18-3.29,8.66-.54,5.99,1.22,11.86,3.74,17.2-.58.69-.57.67-1.06-.06-.87-1.27-2.48-5.64-2.85-7.23-1.98-8.37.13-17.29.18-25.77-.69.28-1.32,3.61-1.49,3.73-.3.21-1.34-.05-1.45-.59-.09-.44.65-2.48.7-3.34.2-3.48-.07-6.68-2.8-9.14-.3.76-.69,5.22-1.49,5.22-1.65-3.79-3.56-6.34-6.95-8.73-.41-.29-1.34-1.27-1.83-.79,3.83,6.98,4.91,14.39,6.3,22.09.47,2.6.26,4.47,1.48,7.11.2.42.7,1.52,1.18,1.62.04-2.79-.16-6.41,1.87-8.59-.64,3.62-.76,7.25-.27,10.92.13.98.66,2.89,1.07,3.79.44.96,2.72,3.41,2.58,4.14-.23,1.14-1.28.22-1.68-.17-1.61-1.55-5.88-10.43-6.64-12.79-.63-1.96-.95-4.21-1.02-6.27l-3.73.56c2,3.6.55,8.25,3.36,11.38-2.48-.15-2.46-2.77-5.6-1.86,3.02,2.72,4.59,8.52,7.49,11,.7.6,2.1.33,1.29,1.69-2.63-.89-4.2-2.73-7.29-1.68,3.04,1.89,2.83,5.77,5.03,8.05,1.11,1.14,2.61,1.64,3.94,2.42.49.29.94-.06.74.93-2.62.4-5.94-2.02-7.17-4.22-1.39-2.47-.7-4.39-3.68-6.4-.64-.43-2.87-1.15-2.96-1.52-.48-1.98,6.21.18,7.09-.74-1.55-2.28-3.57-7.41-5.84-8.73-.17-.1-5.09-1.92-2.56-1.92h6.54c.15-3.7-.99-8.05-3.73-10.64,1.45-1.73,2.61,1.83,4.47.75-2.49-2.71-3.06-5.97-5.78-8.78-2.87-2.96-6.98-5.29-7.28.75,4.94-4.88,9.96,4.43,3.38,5.81-4.49.94-7.85-2.26-7.49-6.74.52-6.52,4.48-8.38,10.54-7.56,2.4.32,3.82,1.54,5.89,2.51-1.2-2.79-1.9-5.85-3.9-8.23-.43-.51-1.49-.87-1.68-1.31-.93-2.09,3.61.24,4.09.57-.92-4.56-.36-10.1,3.36-13.26-4.06-.61-5.18-5.4-4.4-8.88.53-2.38,5.4-3.02,7.39-2.13,0-.39-.03-.83.11-1.19,2.67-6.61,5.43-14.98,4.35-22.14-.21-1.36-6.11-8.38-7.46-10.39-.05-.08-1.87-1.48-.17-1.4,1.47.07,2.87,1.04,4.3.94-1.13-.55-6.4-6.51-5.6-7.28l3.36.37c-1.54-2.01-4.01-10.55-2.92-12.42,1.07-1.83,1.2.45,1.79,1.41,1.89,3.09,4.64,4.48,6.73,7.27-.44-8.1-3.27-14.75-6.65-21.92-4.94-10.48-9.57-19.1-22.08-21.62-1.74-.35-3.42.06-5.04-.19-5.77-.88,1.09-5.36,2.78-7.07-2.41-.3-4.78-1.14-7.26-.73-1.91.32-4.44,3.47-2.45,5.02-1.58.33.29.73,0,2.05-2.23-.06-4.31-2.96-4.5-5.04-.49-5.35,6.8-7.64,10.92-6.05,2.17.84,4.41,5.14,7.18,3.27.97-.65-.55-.89-.92-1.29-.47-.51-2.43-3.65-.92-3.57.31.02,2.31,4.1,4.48,4.1h5.79c.38-6.14-1.86-12.24-8.28-13.94-1.73-.45-7.72-1.11-9.36-.93-.51.06-3.26,1.22-3.27,1.61,4.17,5.16,12.66.54,16.42,5.98.27.89-3.54-.98-3.81-1.05-2.26-.61-4.69-.92-7.02-.45.96,4.03,9.89,2.26,10.46,5.6.22,1.27-2.35-.44-3.08-.66-3.01-.9-5.52-.22-7.54-2.92-.53-.7-.94-2-1.35-2.39-.53-.51-1.86-.66-2.62-1.11-2.88-1.73-4.43-2.74-1.1-5.43-.77.06-1.68-.14-2.42,0-1.57.31-4.21,6.77-5.64,8.55-2.08,2.58-6.33,5.36-9.72,5.25-.83-.03-.74-1.23-1.64-1.11,1.34-1.6,3.68-2.14,5.02-3.75,2.17-2.6,1.89-7.38,4.5-9.32,2.01-1.49,5.65-1.53,8.03-1.12l-2.79-1.87c-3.81-3.11-5.12-5.93-3.83-10.91.62-2.36,2.56-4.42,4.92-5.17,6.37-2.03,7.46,10.72-.54,7.49.4,5.65,6.96,8.08,11.57,9.71-2.22-1.97-2.83-6.93-.51-8.91,2.3-1.95,3.6-.42,3.5,2.19.29.3,2.48-1.3,3.47-1.07,1.39.33.89,2.43,1.01,2.56.15.15,2.48-.44,3.54.76,1.47,1.67.96,4.17-.55,5.59h5.41c.82,0,1.43-1.07,1.58-1.1.62-.15,1.39.08,2.07-.1,9.03-2.46,18.61-6.71,25.29-13.36-2.01.76-3.59,2.28-5.82,2.58-5.42.72-15.78-3.96-17.7,3.39,1.71-2.18,5.46-1.07,5.63,1.68.3,4.91-9.59,5.84-10.13,1.89-.61-4.45,2.28-7.5,6.36-8.62,2.46-.68,5.02-.42,7.47-1.11-.33-2.68-1.57-1.41-3.83-1.78-1.71-.28-3.57-1.42-5.12-2.15-.36,1.92-3.32,5.15-5.13,5.54-2.15.46-4.94-2.68-4.92-4.94.03-2.32,1.52-1.75,1.78-2.14.49-.72-.46-2.57,1.9-4.26,2.49-1.77,3.43-.29,5-.52.21-.03,1.01-2.6,3.6-1.34,2.54,1.24-1.31,5.87-.97,6.54,1.58,1.27,4.36,2.3,6.37,2.26.76-.02,1.09.24.94-.76-4.59-.23-5.67-9-.56-9,2.92,0,2.97,1.62,2.8,4.14,1.71-1.14,3.89-2.29,5.97-1.5-.27-1.25-.8-2.03-.37-3.36-2.27,1.66-6.19-.07-5.59-3.15.24-1.22,1.46-1.08-.2-2.45-6.34-5.22-19.85-2.73-26.9-.01-2.41.93-5.29,2.12-6.52,4.49.24.2,3.83-1.8,3.73-.56-.07.84-5.26,1.59-5.96,4.12-.28,1.01,1.47.41,1.86.56-.31.7-1.05,1.09-1.47,1.75-.08.13-1.04,2.49-1.06,2.64-.2,1.55.15,4.68,1.72,2.09,2.35-3.87,3.17-8.09,7.17-11.13,6.23-4.72,19.16-8.64,26.12-3.76.4.28,1.24.41,1.11,1.12-.16.88-.88.25-1.23.13-8.63-2.99-12.3-2.84-20.68,1.12-4.07,1.92-6.08,3.38-8.4,7.29-.83,1.39-4.61,11.58-6.75,6.5-.6-1.43-.1-6.11.26-7.77.31-1.43,3.79-6.3,5.05-7.27,2.18-1.68,11.27-4.99,14.05-5.37,1.16-.15,2.35.02,3.51-.04-2.53-4.18-8.21-.68-11.76-.38-2.77.24-5.84-.09-5.43-3.55.15-1.25,4.62-7.75,5.79-8.41,1.19-.67,2.37-.05,3.19-.54,1.63-.97.93-3.72,4.95-3.08,6.94,1.1.12,9.55,3.06,13.75,2.38,3.4,4.67,1.85,8.13,2.32,1.97.27,4.07,1.37,5.88,2.14-.98-3.89,3.39-2.63,3.74-2.99.25-.25.08-4.61-.05-5.37-.46-2.59-1.71-5.56-4.81-5.29-1.8,1.56-4.95,7.04-7,7.58-4.35,1.16-2.29-3.29-2.43-5.6-.15-2.41-3.09-3.39-.15-6.5,1.27-1.34,6.78-3.01,8.75-3.39,3.11-.6,5.87-.6,8.48,1.4.91.7,2.17,2.68,2.52,2.92.4.28,3.47-.71,4.73,1.41,1.74,2.95.18,7.23-.7,10.23.55-.18.89-.78,1.47-.95,1.35-.41,7.02-.74,8.45-.56,3.11.39.72,5.27-.21,6.93-.08.25.33.27.55.18,1.76-.75,5-3.24,5.86-4.97,1.38-2.78,2.18-8.94,2.11-12.03-.04-1.66-3.41-8.1-4.6-9.52-3.25-3.9-8.96-5.52-12.08-.49-2.59,4.18,1.02,8.86,5.65,7.52,1.68-.49,3.83-6.33.45-6.31-2.55.02-2.06,1.78-2.05,3.77-1.87-.06-1.86-1.93-1.41-3.47.55-1.9,4.52-2.36,5.88-1.18,1.99,1.7.26,7.71-2.25,8.56-1.91.65-4.53.31-6.14-.92-2.12-1.61-2.82-3.46-2.4-6.14.18-1.15,2.43-6.57,3.35-7.1.38-.22,3.83-1.38,4.45-1.53,2.68-.65,4.86-.64,7.49.2v-6.91c0-2.3,3.65-9.27,5.07-11.37,1.94-2.87,9.13-9.17,12.29-10.49,8.15-3.43,23.81-.18,24.13,10.8,3.72-.15,6.38,3.16,9.33,5.05,3.03,1.94,6.73,4.24,10.43,3.76-3.56-5.95-.99-13.21,6.87-12.1,4.28.6,6.11,4.11,8.68,7.03,1,.17,1.84-2.15,2.37-2.77,2.8-3.26,6.33-5.29,10.84-4.12,3.41.89,4.55,5.9,4.07,8.95-.21,1.32-1.25,1.99-1.47,3.2,2.31.11,4.61-.75,6.67-1.73,3.41-1.62,7.73-5.99,10.6-6.95.76-.25,2.38-.25,2.48-.33.17-.14.81-3.42,1.15-4.27,3.32-8.25,18.29-9.63,25.14-5.34,1.89,1.19,4,3.08,5.66,4.41,3.29,2.64,9.53,12.06,9.53,16.24v6.91c2.63-.84,4.81-.85,7.49-.2.62.15,4.07,1.31,4.45,1.53.92.53,3.17,5.96,3.35,7.1.42,2.68-.29,4.53-2.4,6.14-1.61,1.23-4.23,1.57-6.14.92-2.51-.85-4.23-6.86-2.25-8.56,1.37-1.18,5.33-.72,5.89,1.18.45,1.55.46,3.42-1.41,3.47-.14-2.37.93-3.75-2.06-3.77-3.38-.02-1.22,5.82.45,6.3,6.23,1.81,9.05-6.36,3.46-9.81-5.97-3.68-11.12,3.79-13.12,8.51-1.42,3.35-1.44,5.29-1.01,8.98.65,5.51,2.23,9.53,7.61,11.81.22.09.63.07.55-.18-.93-1.66-3.32-6.54-.21-6.93,1.43-.18,7.1.15,8.45.56.59.18.92.77,1.47.95-.88-2.99-2.44-7.27-.7-10.23,1.26-2.12,4.33-1.13,4.73-1.41.35-.24,1.61-2.22,2.52-2.92,2.6-1.99,5.37-2,8.48-1.4,2.93.56,9.52,2.29,9.99,5.71.26,1.84-1.28,2.34-1.39,4.17-.14,2.32,1.92,6.76-2.43,5.6-2.05-.55-5.2-6.02-7-7.58-3.09-.27-4.35,2.71-4.81,5.29-.13.76-.3,5.12-.05,5.37.35.35,4.72-.91,3.74,2.99,1.82-.77,3.91-1.88,5.88-2.14,3.47-.47,5.75,1.08,8.13-2.32,3-4.27-3.91-12.62,3.06-13.75,4.02-.65,3.49,2.21,4.95,3.08.83.49,2.01-.13,3.19.54,1.17.66,5.64,7.16,5.79,8.41.41,3.46-2.67,3.79-5.43,3.55-3.55-.3-9.23-3.81-11.77.38,2.16-.22,3.85.13,5.89.65,3.98,1.02,11.53,3.64,13.92,6.99.44.62,2.68,4.44,2.81,5.03.36,1.66.86,6.34.26,7.77-2.14,5.08-5.92-5.11-6.75-6.5-2.32-3.9-4.33-5.36-8.4-7.29-8.38-3.96-12.04-4.11-20.68-1.12-.35.12-1.08.75-1.23-.13-.17-.94,3.45-2.31,4.19-2.53,7.41-2.16,15.6.35,21.92,4.43,5.09,3.29,5.52,7.3,8.3,11.87,1.57,2.59,1.92-.54,1.72-2.09-.02-.15-.98-2.52-1.06-2.64-.42-.66-1.15-1.05-1.47-1.75.39-.14,2.14.45,1.86-.56-.71-2.52-5.89-3.28-5.96-4.12-.1-1.24,3.49.75,3.73.56-1.23-2.37-4.11-3.57-6.52-4.49-7.04-2.71-20.56-5.2-26.9.01-1.66,1.37-.44,1.22-.2,2.45.6,3.08-3.32,4.82-5.59,3.15.42,1.33-.11,2.11-.37,3.36,2.08-.79,4.26.36,5.97,1.5-.25-2.65.1-4.41,3.18-4.12,4.69.44,3.47,8.87-.94,8.98-.15,1,.18.74.94.76,2.02.05,4.79-.98,6.37-2.26.34-.67-3.51-5.29-.97-6.54,2.59-1.27,3.39,1.3,3.6,1.34,1.57.22,2.51-1.26,5,.52,2.37,1.69,1.42,3.54,1.9,4.26.15.23,1.05.16,1.36.51.72.84.35,3.31-.27,4.22-.1.14-2.48,2.15-2.64,2.22-2.32,1.09-6.3-3.16-6.72-5.41-1.56.73-3.41,1.87-5.12,2.15-2.25.37-3.49-.9-3.82,1.78,2.45.69,5.01.43,7.47,1.11,4.08,1.12,6.97,4.17,6.36,8.62-.55,3.96-10.43,3.02-10.13-1.89.17-2.75,3.92-3.86,5.63-1.68-.37-3.01-2.73-3.86-5.42-4.1-5.04-.46-9.98,1.98-14.83-.11-1.1-.48-2.08-1.54-3.28-1.76,6.69,6.64,16.27,10.9,25.29,13.36.69.19,1.45-.04,2.07.1.14.03.75,1.1,1.58,1.1h5.41c-1.51-1.42-2.02-3.92-.55-5.59,1.05-1.19,3.39-.6,3.54-.76.12-.13-.38-2.23,1.01-2.56,1-.24,3.18,1.36,3.47,1.07-.1-2.6,1.2-4.14,3.5-2.19,2.32,1.98,1.71,6.94-.51,8.91,4.61-1.62,11.18-4.06,11.57-9.71-8.06,3.21-6.81-9.49-.54-7.49,6.91,2.19,7.04,12.45,1.09,16.07l-2.79,1.87c2.38-.41,6.02-.37,8.03,1.12,2.61,1.94,2.33,6.72,4.5,9.32,1.34,1.61,3.68,2.15,5.02,3.75-.89-.11-.81,1.09-1.64,1.11-3.39.11-7.65-2.66-9.72-5.25-1.43-1.78-4.07-8.25-5.64-8.55-.74-.14-1.65.06-2.42,0,3.33,2.68,1.77,3.7-1.11,5.43-.76.46-2.09.6-2.62,1.11-.42.41-.79,1.68-1.35,2.39-2.01,2.59-4.65,2.05-7.54,2.92-.72.22-3.29,1.93-3.08.66.57-3.34,9.5-1.58,10.46-5.6-2.32-.45-4.77-.18-7.02.45-.62.17-3.68,2.1-3.44.67.23-1.36,2.82-2.05,4.03-2.32,4.23-.95,8.86.5,12.03-3.28,0-.39-2.76-1.56-3.27-1.61-1.64-.18-7.63.48-9.36.93-6.42,1.7-8.66,7.8-8.28,13.94h5.79c2.18,0,4.17-4.08,4.48-4.1,1.52-.08-.45,3.06-.92,3.57-.37.41-1.89.64-.92,1.29,2.78,1.87,5.01-2.43,7.18-3.27,2.71-1.04,6.8-.29,9.04,1.56,3.63,2.99,1.67,8.69-2.62,9.53-.28-1.32,1.58-1.72,0-2.05,1.99-1.55-.54-4.7-2.45-5.02-2.48-.42-4.85.43-7.26.73.57.93,1.81,1.36,2.57,2.09,6.44,6.12-.95,4.38-4.84,5.17-12.51,2.52-17.14,11.14-22.08,21.62-3.38,7.16-6.21,13.81-6.65,21.92.88-.34,1.03-1.53,1.62-2.11,1.9-1.88,3.46-2.47,5.11-5.16.59-.96.72-3.24,1.79-1.41,1.09,1.86-1.38,10.41-2.92,12.42l3.36-.37c.8.78-4.47,6.73-5.6,7.28,1.42.1,2.82-.87,4.3-.94,1.7-.08-.12,1.32-.17,1.4-2.42,3.59-5.43,6.73-7.46,10.39-.83,5.51.73,12.04,2.4,17.35.64,2.03,1.92,3.89,2.06,5.97,1.98-.89,6.86-.25,7.39,2.13.78,3.48-.34,8.28-4.4,8.88,3.73,3.16,4.28,8.7,3.36,13.26.48-.33,5.02-2.66,4.09-.57-.2.44-1.25.79-1.68,1.31-2.01,2.38-2.71,5.44-3.91,8.23,2.07-.97,3.48-2.19,5.88-2.51,6.06-.82,10.02,1.05,10.54,7.56.36,4.48-2.99,7.68-7.48,6.74-6.58-1.38-1.56-10.69,3.38-5.81-.3-6.04-4.42-3.71-7.28-.75-2.72,2.81-3.29,6.08-5.78,8.78,1.86,1.08,3.02-2.48,4.47-.75-2.74,2.6-3.88,6.94-3.73,10.64h6.54c2.53,0-2.39,1.82-2.56,1.92-2.27,1.32-4.29,6.44-5.84,8.73.87.92,7.57-1.25,7.09.74-.09.37-2.32,1.09-2.96,1.52-2.98,2.01-2.29,3.93-3.68,6.4-1.24,2.2-4.56,4.61-7.17,4.22-.2-.99.25-.64.74-.93,1.33-.78,2.84-1.27,3.95-2.42,2.2-2.27,1.98-6.16,5.03-8.05-3.09-1.05-4.66.79-7.29,1.68-.81-1.36.59-1.09,1.29-1.69,2.9-2.48,4.47-8.28,7.49-11-3.14-.91-3.12,1.71-5.6,1.86,2.82-3.14,1.37-7.78,3.37-11.38l-3.74-.56c-.08,2.06-.39,4.31-1.02,6.27-.76,2.36-5.03,11.24-6.63,12.79-.41.39-1.46,1.32-1.69.17-.15-.73,2.14-3.18,2.58-4.14,1.87-4.11,1.49-10.35.79-14.71,2.03,2.18,1.83,5.8,1.87,8.59.48-.1.98-1.19,1.18-1.62,1.22-2.64,1.01-4.52,1.48-7.11,1.39-7.68,2.44-15.13,6.3-22.09-.49-.49-1.42.49-1.83.79-3.39,2.4-5.3,4.94-6.95,8.73-.8,0-1.19-4.46-1.49-5.22-2.73,2.46-3,5.66-2.8,9.14.05.86.79,2.9.7,3.34-.11.54-1.15.8-1.45.59-.17-.12-.81-3.46-1.49-3.73l1.11,19.6c-.4,2.07-.43,4.1-.93,6.17-.38,1.59-1.98,5.96-2.85,7.23-.49.72-.48.75-1.06.06,2.51-5.34,4.28-11.21,3.74-17.2-.13-1.48-2.47-7.32-3.29-8.66-.31-.51-1.72-1.73-2.22-1.88-3.55-1.11-2.74,4.05-2.35,6.26h-2.24c0,.78-.09,1.57.09,2.35.32,1.42,2.88,3.8-.09,3.45,2.47,4.34,5.87,8.71,4.77,14.11-.26,1.26-1.96,3.01-2.06,3.86-.08.73.56,1.78.61,2.61.15,2.54-.09,4.79-.7,7.24,2.09-2.49,9.56-11.2,12.51-11.58.88-.12.67.99.55,1.11-.06.07-1.19.14-1.85.59-2.26,1.55-5.17,5.25-7.48,7.09l-4.49,6.15c3.46-.21,6.47,1.61,9.81-.08.78-.39,1.14-1.17,1.79-1.57,2.13-1.33,3.54-1.23,5.95-.96.03-2.3-5.71-2.76-5.97-2.99-.48-.42.09-.68.47-.85,2.82-1.23,8.98,3.64,7.94,5.33-.44.72-4.79-1.08-5.9-.3-1.48.48-2.21,1.72-3.5,2.46-.53.3-2.25.77-2.31.87-.26.4.04,4.24-.09,5.32-.43,3.6-3.67,6.04-7.15,4.62-.88-.36-1.91-1.87-2.28-1.74-1.68,1.7-4.91,1.49-6.23,3.49-1,1.52.7,1.45.77,2.82-2.09-.08-2.75-1.72-1.82-3.5,1.28-2.43,5.4-2.19,6.52-3.56.76-.92.39-2.03,1.09-3.02,1.03-1.45,4.57-1.97,3.92-5.23-2.38-.33-3.87-.62-5.79,1.12-2.44,2.21-8.72,8.21-11.55,9.37-.57.23-4.17.87-4.32.71-1.18-1.22,2.11-1.51,2.58-1.71,3.31-1.48,10.63-7.43,13.48-10.04.58-.53,3.3-3.27,3.3-3.74,0-.3-1.08-.74-1.07-1.48,0-.36.66-1.18.78-2.22.7-6.27-2.53-8.46-6.74-12.16,1.2,5.26-3.27,8.93-3.22,14.44.02,1.88,2.24,6.2-.7,2.37-1.2,1.38-1.59,4.1-3.92,4.1,2.9-3.09,4.6-7.59.38-10.45.27,3.15.15,6.32-.94,9.33-.92,2.54-3.84,4.61-2.42,7.47-3-.57-.91-4.28-1.69-5.97-.18-.38-2.08-2.23-2.53-2.18-.38.04-1.01.55-1.58.67-2.65.56-4.61.28-5.84,3.12-.55,1.26-1.21,5.88-3.1,5.85-1.15-.02.48-1.69.6-2.04.21-.62.75-4.16-.4-3.18-.08.07-.54,1.33-.97,1.83-2.42,2.8-7.47,4.9-10.99,6.19-4.57,1.67-9.29,1.15-13.89,2.54-12.41,3.76-28.49,13.84-31.13,27.51-.07.38-.49,1.22.2,1.14,2.51-6.33,6.51-12.14,12.14-16.06.36.09.21.98.12,1.24-.14.39-3.84,3.48-4.6,4.36-3.64,4.2-6.01,9.49-8.02,14.57,1.84-2.45,2.85-5.62,4.7-8.18.58-.8,6.07-7.18,6.87-6.38.16.7-.4.89-.74,1.31-2.33,2.81-4.54,4.79-6.51,8.06-1.91,3.19-2.85,8.48-6.57,9.49.38-1.1,1.53-1.85,1.96-2.91.22-.54.18-1.09.29-1.38-2.57,3.42-3.41,3.42-5.97,0,.11.28.07.83.29,1.38.43,1.07,1.58,1.82,1.95,2.91-4.03-.94-4.33-6.55-6.57-9.49l-7.25-9.37c.82-.78,6.28,5.56,6.88,6.38,1.89,2.59,2.85,5.72,4.7,8.18M163.56,361.39c.12-.1,1.66-2.44,1.71-2.59.76-2.39-.16-5.23-1.31-7.32-.21-.38-.3-1.07-.94-.92-.18.04-1.53,2.75-1.67,3.19-.9,2.92-.65,5.19,1.45,7.4.25.26.52.45.77.24M171.41,344.96c-2.25-.15-5.65-.01-6.35,2.61,2.32.19,4.81-.89,6.35-2.61M161.32,347.57c-.69-2.62-4.09-2.75-6.35-2.61,1.54,1.72,4.02,2.8,6.35,2.61M163.56,348.32c.19-.2,1.19-4.79,1.15-5.41-.16-2.35-1.96-4.19-2.83-.95-.42,1.57.23,4.35.91,5.83.15.32.17,1.18.78.53M158.89,343.83c.3.04,1.6.85,1.68.75-.62-2.85.61-3.64,1.64-5.6.21-.41-.49-1.39.79-1.52,1.72-.17.94,1.08,1.17,1.52,1.03,1.96,2.25,2.75,1.63,5.6.08.11,1.43-.75,1.68-.75h7.09c.11,0,.7.61.56.93-1.96.7-4.21,2.66-5.98,3.36-1.44.58-2.56.36-3.75.73-2.39.75-.12,1.69.3,2.73.75,1.86,1.33,6.31.42,8.08-.19.37-2.56,3.15-2.81,3.19-.72.12-3.34-3.41-3.48-4.29-.27-1.7.19-5.69.93-7.25.39-.81,2.58-1.71.19-2.46-1.19-.37-2.31-.15-3.75-.73-1.76-.71-4.02-2.66-5.98-3.36-.14-.32.45-.93.56-.93,2.11,0,5.15-.27,7.09,0M164.29,381.58c-.27-.38-2.79-.72-2.14,1.2.78,2.3,2.87-.18,2.14-1.2M164.64,379.72c.1.07,1.42,1.97,1.46,2.1,1.4,4.52-6.77,4.79-5.9.31.04-.21,1.41-2.32,1.53-2.4.08-.06.85.38,1.28.37.6-.01,1.56-.42,1.63-.37M122.86,339.73c-3-.7-6.17-.46-9.1-.8-7.02-.79-17.14-3.35-23.78-1.66-.87.22-6.19,2.48-6.6,2.92-.58.61-.9,2.76-.84,3.64,1.18-1.68,4.22-2.59,6.26-2.89,1.13-.17,3.58-.54,4.2.65-5.89.78-11.3.89-10.08,8.59l1.88-2.78c2.22-3.2,13.32.63,14.16-.22.06-.06.03-1.21.3-1.75.58-1.16,2.12-3.62,3.07-4.4,1.6-1.3,3.18-1.44,5.06-2.04.81,1.79-1.94,1.65-3.07,2.16-2.76,1.25-6.48,8.33-2.17,8.31,2.02-.01,10.91-6.69,14.12-7.93l6.6-1.8ZM97.46,326.66c-.53,2.42,1.51,8.9,4,9.63,2.4.71,6.68.55,9.26.83,9.83,1.06,21.22,2.44,30.07,7.27.66.36,3.73,2.63,1.44,1.92-4.75-1.47-12.01-5.81-16.9-5.42-4.68.38-10.74,2.46-14.55,5.24-1.74,1.27-1.36,4.41.78,4.74.93.14,1.34-.58,1.85-.64,1.37-.15.4,1.79.5,2.71.28,2.53,4.92,4.01,7.09,3.58.19-.14-2.37-2.31-1.14-4.32.5-.81,3.35-2.12,4.3-2.02.99.1,2.48,1.98,3.33,1.82.5-.1,2.04-2.77,3.33-3.39,3.39-1.65,9.4.2,11.85,2.87,3.6,3.92,1.84,9.8-3.78,8.25-1.88-.52-1.46-4.33,1.15-3.94.28.94-.87.89-1.04,1.19-.74,1.32.6,1.9,1.78,1.79,1.24-10.36-13.24-2.49-9.13,4.09.35.55,1.78,1.9,2.39,2.09.54.17,3.69.54,4.32.54,2.21-.02,5.08-1.51,6.53-3.18-1.43-.15-1.92,1.12-3.54,1.32-3.3.4-10.08-.88-9.08-5.34.2-.92,1.44-2.42,1.25-.62-.3,2.8-.12,3.29,2.78,4.26,3.68,1.24,6.07.58,8.91-1.9,1.01-.88,1.67-2.96,3.4-2.76-1.26,1.19-.64,2.15-.83,3.08-.47,2.32-4.84,5.89-7.23,6.22-6.24.86-12.86-.93-10.51-8.64,1.91-6.25,12.58-8.48,11.85.08.42-.1.92-.62,1.04-1.01,1.58-5.39-7.75-9.15-11.76-6.91-1.96,1.09-1.82,3.85-5.06,2.97-1.24-.34-2.78-2.71-4.76-.47-1.89,2.14,3.54,4.87.56,5.42-1.79.33-6.51-.98-7.85-2.23-.97-.9-1.48-3.48-1.75-3.67-.28-.2-1.15-.07-1.69-.35-1.76-.91-2.25-2.27-1.97-4.2-2.54,1.32-5.23,4.2-8.35,2.57-.8-.42-1.42-1.82-1.57-1.83-.33-.02-.91.44-1.46.39-5.68-.49-13.92-4.38-13.26,5.41-1.69,1.02-2.55-3.37-2.59-4.54-.04-1.21.61-2.7.53-3.84-.04-.62-.54-1.02-.59-1.7-.07-1.02.39-1.83.4-2.81-2.4,1.84-3.22,4.31-6.72,2.8-4.35-1.88-4.67-7.51.37-8.4.1,1.26-1.52,1.4-2.04,2.26-1.36,2.27,1.39,5.44,3.68,5.21,1.72-.18,2.98-2.62,4.36-3.51,3.09-1.99,9.22-4.16,12.87-4.31,1.67-.07,3.28,1.02,5.02.73-.22-1.14-1.25-1.8-1.76-2.9-.81-1.73-1.09-3.99-.85-5.88.07-.54.29-1.16.74-.55M243.01,340.19c-.37-.39-5.53-2.63-6.32-2.83-1.73-.44-3.64-.26-5.38-.97-9.21,1.65-18.62,1.98-27.79,3.51,7.3.22,12.19,5.47,18.05,8.47,3.92,2,5.63,1.24,3.93-3.19-.69-1.79-1.63-3.23-3.43-4.04-1.12-.51-3.87-.37-3.07-2.16,4.66.6,7.52,3.8,8.42,8.2,5.34.2,13.26-4.15,15.86,3.01,1.73-7.63-4.21-7.86-9.9-8.6.14-.68.73-.69,1.29-.76,2.66-.31,7.51.79,9.16,3,.06-.89-.25-3.03-.84-3.64M229.66,326.66c.1,2.41.13,4.49-.97,6.68-.25.5-1.96,2.38-1.64,2.65,1.74.3,3.34-.79,5.02-.73,3.65.15,9.78,2.32,12.87,4.31,2.39,1.54,4.6,6.43,7.88,1.46,1.34-2.03.29-2.9-1.09-4.14-2.39-2.16,1.51-1.22,2.49.86,1.72,3.64-2.76,7.78-6.09,6.48-1.39-.54-2.22-2.32-3.53-3.02.02.98.48,1.78.41,2.81-.05.68-.55,1.08-.59,1.7-.08,1.15.57,2.63.53,3.84-.03.79-.93,4.56-1.66,4.73-1.45-.2-.76-2.03-1.02-3.09-1.5-6.25-8.89-2.88-13.17-2.51-.55.05-1.13-.41-1.46-.39-.15,0-.77,1.41-1.57,1.83-3.12,1.63-5.81-1.25-8.35-2.57.28,1.93-.21,3.29-1.97,4.2-.54.28-1.41.15-1.69.35-.26.19-.78,2.77-1.75,3.67-1.34,1.25-6.06,2.56-7.85,2.23-2.99-.55,2.45-3.28.56-5.42-2.14-2.43-4.24.95-6.52.57-1.41-.23-1.96-2.32-3.3-3.07-4.01-2.24-13.34,1.52-11.76,6.91.12.39.62.91,1.04,1.01-.73-8.56,9.94-6.33,11.85-.08,2.35,7.71-4.26,9.5-10.51,8.64-2.39-.33-6.76-3.89-7.23-6.22-.19-.94.43-1.9-.83-3.08,1.73-.2,2.39,1.88,3.4,2.76,2.85,2.48,5.23,3.14,8.91,1.9,2.9-.98,3.08-1.46,2.78-4.26-.19-1.8,1.05-.3,1.25.62,1,4.46-5.77,5.74-9.08,5.34-1.61-.19-2.11-1.46-3.54-1.32.76.8,1.73,1.65,2.73,2.12,3.67,1.74,11.25,1.43,11.11-3.99-.1-3.94-3.72-7.15-7.66-6.51-2.56.41-2.09,2.84-2.08,4.83,1.18.1,2.52-.48,1.78-1.79-.17-.3-1.32-.25-1.03-1.19,2.61-.39,3.03,3.42,1.15,3.94-5.62,1.55-7.38-4.32-3.78-8.25,2.45-2.67,8.46-4.52,11.85-2.87,1.3.63,2.83,3.3,3.33,3.39.85.17,2.34-1.72,3.33-1.82.95-.09,3.8,1.21,4.3,2.02,1.23,2-1.34,4.18-1.14,4.32,2.17.43,6.81-1.05,7.09-3.58.1-.86-.84-2.96.5-2.72.34.06.65.75,1.52.71,2.34-.1,2.98-3.43,1.1-4.81-3.77-2.75-9.92-4.91-14.55-5.24-4.95-.35-12.09,3.92-16.9,5.41-1.73.53-.34-.92.44-1.43,7.83-5.04,21.99-6.78,31.07-7.76,2.57-.28,6.85-.12,9.26-.83.77-.22,2.24-2.19,2.64-2.96,1.2-2.25,1.05-3.76,1.36-6.12.06-.51.26-1.19.74-.56"/>
  </g>
</svg>