<?xml version="1.0" encoding="UTF-8"?>
<svg id="Capa_2" data-name="Capa 2" xmlns="http://www.w3.org/2000/svg" viewBox="0 0 265.96 146.55">
  <defs>
    <style>
      .cls-1 {
        fill: #fff;
      }

      .cls-2 {
        fill: #039aa3;
      }
    </style>
  </defs>
  <g id="Modo_de_aislamiento" data-name="Modo de aislamiento">
    <g>
      <g>
        <path class="cls-2" d="M264.05,56.55l.19-.59-45.59-34.72,3.11,35.31h42.3Z"/>
        <path class="cls-2" d="M223.47,76.24h.58l10.41-7.15-12.72-12.54,1.73,19.69Z"/>
        <path class="cls-2" d="M211.79,35.28l.19-.59L166.43,0l9.1,35.28h36.26Z"/>
      </g>
      <g>
        <path class="cls-1" d="M14.4,84.67c11.98-2.72,11.02-19.08-2.22-19.08H0v68.14h12.17c9.85,0,14.69-11.58,14.69-25.21,0-12.66-4.15-22.39-12.46-23.85ZM10.05,66.18c8.89,0,8.89,18.3,0,18.3h-3.96v-9.54c0-3.9-1.83-6.42-4.15-8.76h8.12ZM10.05,133.14h-3.96v-48.09h3.96c6.57,0,9.76,9.83,9.76,23.17s-3.19,24.92-9.76,24.92Z"/>
        <path class="cls-1" d="M48.76,134.41c-6.08,0-7.92-6.52-7.92-25.21v-1.66h19.13c0-12.75-3.28-24.04-11.3-24.04-8.89,0-13.82,9.54-13.82,25.7s4.93,25.79,13.91,25.79c7.05,0,11.02-7.11,12.08-19.47h-.68c-1.16,13.14-5.7,18.89-11.4,18.89h0ZM48.66,84.09c6.38,0,8.4,9.44,8.6,22.87h-16.42c.19-16.94,2.13-22.87,7.82-22.87Z"/>
        <path class="cls-1" d="M74.77,96.55l-2.32-11.49h-3.09v48.67h5.6v-32.22c0-10.51,5.12-11.68,14.01-11.68v-4.77h-1.74c-6.18,0-11.11,3.12-12.46,11.49Z"/>
        <path class="cls-1" d="M98.03,112.9c2.22,3.6,5.8,5.55,10.34,5.55,8.31,0,13.24-6.52,13.24-17.52v-25.79h-6.38c4.64,6.42,5.51,11.88,5.7,19.18-1.64-6.91-6.09-10.8-12.56-10.8-8.31,0-13.24,6.42-13.24,17.42,0,4.57.87,8.37,2.42,11.29-3.87,12.36.29,16.06,4.06,17.13-5.8.59-7.44,2.63-7.44,5.16,0,16.65,28.41,15.47,28.41-.1,0-19.76-31.4.39-24.54-21.51h0ZM108.36,84.09c5.51,0,7.53,4.38,7.53,16.84s-2.03,16.84-7.53,16.84-7.44-4.38-7.44-16.84,2.03-16.84,7.44-16.84ZM122.08,134.41c0,7.88-27.34,9.15-27.34.1,0-2.43,1.35-4.67,10.34-4.67,11.3.1,17.01,0,17.01,4.57Z"/>
        <path class="cls-1" d="M136.37,83.7v.48c7.92,0,13.53,1.17,14.1,12.85-15.07,9.25-21.54,17.82-21.45,26.38.1,7.59,4.44,11.49,9.66,11.49s10.82-4.28,11.98-14.02l2.22,12.75h3.19v-34.65c0-13.33-9.08-15.28-19.71-15.28h0ZM150.48,98.98v17.71c0,10.12-5.02,15.87-9.27,15.87-3.09,0-5.7-3.12-5.8-10.12-.19-10.02,3.77-17.71,15.07-24.72v1.26h0Z"/>
        <path class="cls-1" d="M182.95,83.5c-4.64,0-9.37,3.7-10.92,11.78l-2.22-10.22h-3.38v48.67h5.6v-34.46c.39-8.47,4.54-13.53,8.6-13.53,3.38,0,6.47,3.12,6.47,11.09v36.89h5.7v-37.48c0-8.76-4.93-12.75-9.85-12.75h0Z"/>
        <path class="cls-1" d="M208.57,117.57v-31.93h5.89v-.59h-5.89v-19.47h-.58l-5.02,19.47h-3.38v.59h3.38v31.93c0,12.36,5.12,17.42,12.27,17.42v-.59c-4.64,0-6.67-2.04-6.67-16.84h0Z"/>
        <path class="cls-1" d="M229.08,85.06h-5.6v48.67h5.6v-48.67Z"/>
        <path class="cls-1" d="M256.1,83.5c-4.64,0-9.37,3.7-10.92,11.78l-2.22-10.22h-3.38v48.67h5.6v-34.46c.38-8.47,4.54-13.53,8.6-13.53,3.38,0,6.47,3.12,6.47,11.09v36.89h5.7v-37.48c0-8.76-4.93-12.75-9.85-12.75h0Z"/>
        <path class="cls-1" d="M44.95,30.34c1.21,0,2.29.1,3.25.32.97.22,1.78.53,2.48.97.7.44,1.23,1,1.59,1.67.36.68.55,1.51.55,2.45v.1c0,.97-.19,1.82-.58,2.55-.39.73-.92,1.33-1.59,1.82-.68.48-1.49.85-2.44,1.09-.94.24-2,.37-3.16.37h-4.53v6.05h-3.54v-17.36l7.96-.03ZM45.03,39.21c1.38,0,2.44-.27,3.18-.8.75-.53,1.13-1.33,1.13-2.41v-.1c0-.56-.1-1.04-.31-1.43-.22-.39-.51-.7-.89-.95-.38-.24-.84-.41-1.38-.53-.53-.12-1.11-.17-1.76-.17h-4.46v6.41h4.46l.02-.03h0Z"/>
        <path class="cls-1" d="M64,48.05c-.87,0-1.66-.1-2.38-.32-.73-.22-1.33-.53-1.83-.97s-.89-1-1.18-1.68c-.29-.68-.43-1.48-.43-2.43v-7.58h3.3v7.31c0,1.12.31,1.92.92,2.43.6.51,1.54.75,2.79.75.6,0,1.18-.08,1.73-.22.55-.15,1.03-.37,1.45-.66.41-.29.75-.66.99-1.09.24-.44.36-.95.36-1.56v-6.99h3.33v12.7h-3.33v-2.38c-.38.75-1.06,1.38-2.03,1.87-.97.48-2.17.73-3.64.73l-.05.08h0Z"/>
        <path class="cls-1" d="M83.13,35.05v2.41c.41-.75,1.11-1.38,2.1-1.89.99-.51,2.22-.77,3.69-.77.87,0,1.66.1,2.39.29.73.19,1.35.51,1.86.95s.92,1,1.21,1.68c.29.68.43,1.51.43,2.48v7.55h-3.3v-7.26c0-1.14-.31-1.97-.94-2.48-.63-.51-1.57-.77-2.85-.77-.6,0-1.18.08-1.73.22-.55.15-1.03.37-1.45.66-.41.29-.75.66-.99,1.09-.24.44-.36.95-.36,1.56v6.99h-3.3v-12.7l3.25.02h0Z"/>
        <path class="cls-1" d="M106.9,47.95c-1.62,0-2.82-.37-3.64-1.07-.82-.7-1.23-1.78-1.23-3.21v-6.34h-2.34v-2.28h2.34v-2.99h3.33v2.99h3.98v2.28h-3.98v6.12c0,.8.19,1.33.58,1.62.38.29.94.44,1.64.44.36,0,.7-.03.99-.08.29-.05.58-.12.84-.19v2.38c-.31.08-.65.15-1.03.22-.38.07-.87.1-1.45.1h-.02,0Z"/>
        <path class="cls-1" d="M120.2,48.05c-.82,0-1.59-.08-2.31-.22-.73-.15-1.35-.39-1.88-.7-.53-.32-.97-.73-1.28-1.22-.31-.48-.46-1.07-.46-1.75s.17-1.31.51-1.82c.34-.51.82-.93,1.45-1.24.62-.32,1.38-.56,2.27-.7.89-.15,1.9-.22,3.01-.22h4.24v-.46c0-.95-.29-1.63-.89-2.04-.6-.41-1.54-.61-2.82-.61-1.11,0-2,.15-2.65.46-.65.32-1.06.8-1.21,1.46h-3.18c.1-.75.36-1.38.77-1.92.41-.54.94-.97,1.59-1.31.65-.34,1.4-.58,2.24-.73.84-.15,1.71-.22,2.63-.22.97,0,1.86.08,2.7.24.84.17,1.57.44,2.17.8.6.37,1.08.85,1.42,1.46.34.61.51,1.38.51,2.31v8.14h-3.25v-1.72c-.51.66-1.21,1.14-2.1,1.46-.89.32-2.03.48-3.42.48l-.05.08ZM120.9,45.93c.65,0,1.25-.05,1.83-.17.58-.12,1.08-.29,1.52-.51.43-.22.77-.51,1.01-.85.24-.34.36-.73.36-1.19v-.97h-4.17c-1.38,0-2.36.12-2.99.39-.62.27-.94.75-.94,1.46,0,.58.29,1.02.87,1.33.58.32,1.45.46,2.58.46l-.07.05h0Z"/>
      </g>
    </g>
  </g>
</svg>